<svg width="1997" height="1472" viewBox="0 0 1997 1472" fill="none" xmlns="http://www.w3.org/2000/svg">
<g filter="url(#filter0_f_343_813)">
<path d="M293.1 1246.16L1605.19 862.342C1730.16 825.784 1818.09 713.835 1823.98 583.756V583.756C1831.05 427.873 1746.18 282.296 1607.05 211.642L1597.86 206.973C1473.22 143.68 1321.83 169.53 1225.26 270.597L293.1 1246.16Z" fill="url(#paint0_linear_343_813)"/>
<path d="M300.4 1271.11L207.262 1298.35L274.302 1228.19L1206.47 252.635C1310.96 143.276 1474.77 115.305 1609.63 183.791L1618.82 188.46C1767.06 263.739 1857.48 418.846 1849.96 584.934C1843.56 726.114 1748.13 847.618 1612.49 887.296L300.4 1271.11Z" stroke="#F46D00" stroke-width="52"/>
</g>
<defs>
<filter id="filter0_f_343_813" x="0.82383" y="0.0167007" width="1996.17" height="1471.14" filterUnits="userSpaceOnUse" color-interpolation-filters="sRGB">
<feFlood flood-opacity="0" result="BackgroundImageFix"/>
<feBlend mode="normal" in="SourceGraphic" in2="BackgroundImageFix" result="shape"/>
<feGaussianBlur stdDeviation="60.3" result="effect1_foregroundBlur_343_813"/>
</filter>
<linearGradient id="paint0_linear_343_813" x1="1826.91" y1="313.43" x2="293.1" y2="1246.16" gradientUnits="userSpaceOnUse">
<stop stop-color="#F9DDBD"/>
<stop offset="0.700026" stop-color="#FF8A00"/>
</linearGradient>
</defs>
</svg>
