<svg width="254" height="158" viewBox="0 0 254 158" fill="none" xmlns="http://www.w3.org/2000/svg">
<g filter="url(#filter0_i_177_26891)">
<mask id="mask0_177_26891" style="mask-type:alpha" maskUnits="userSpaceOnUse" x="0" y="0" width="254" height="158">
<path fill-rule="evenodd" clip-rule="evenodd" d="M248.751 50.1787C247.908 50.5904 247.098 50.8868 246.189 51.0515L246.272 51.0679C245.346 51.2326 244.388 51.3478 243.445 51.3643C243.108 51.3841 242.764 51.3861 242.419 51.388C242.188 51.3893 241.957 51.3907 241.726 51.3972C242.487 51.9077 243.164 52.6322 243.578 53.3732C244.305 54.6575 244.52 56.2383 244.123 57.6708C243.561 59.7291 241.875 61.2604 239.858 61.6556C239.875 61.8038 239.875 61.9685 239.875 62.1167C239.875 63.1046 239.594 64.0761 239.098 64.9159C240.172 64.9324 241.23 64.9488 242.288 64.9818C242.574 64.9869 242.861 64.9888 243.149 64.9908H243.149C244.732 65.0015 246.344 65.0124 247.826 65.5416C249.082 65.9862 250.107 66.6778 250.801 67.8798C251.462 69.0489 251.661 70.4815 251.297 71.7987C250.702 73.9887 248.702 75.5365 246.487 75.5365C242.6 75.5529 238.729 75.4549 234.842 75.3565L234.8 75.3554C234.784 75.5036 234.751 75.6518 234.717 75.8C234.932 75.8659 235.147 75.9317 235.379 75.9976C236.618 76.3763 237.676 77.1667 238.338 78.3193C238.839 79.2065 239.065 80.2454 238.993 81.2633C239.126 81.5235 239.228 81.7831 239.299 82.0571C239.756 82.2378 240.176 82.516 240.542 82.9406C241.211 83.6724 241.573 84.6571 241.538 85.6609C241.517 86.2533 241.364 86.8411 241.082 87.3421C242.423 87.3063 243.764 87.2706 245.086 87.3166C246.605 87.3695 247.832 88.7138 247.777 90.2771C247.751 91.0341 247.428 91.7478 246.88 92.2724C246.487 92.6377 246.083 92.8378 245.616 92.9369L245.615 92.9699C244.583 93.1306 243.533 93.2073 242.486 93.2836C242.218 93.3032 241.95 93.3228 241.682 93.3438C241.186 93.3807 240.689 93.423 240.192 93.4653C239.178 93.5516 238.161 93.6382 237.138 93.68C236.534 93.7084 235.929 93.7327 235.324 93.7569C234.72 93.7812 234.115 93.8055 233.511 93.8339C232.068 93.932 230.626 94.0301 229.167 94.1276L230.026 94.1575C230.147 94.1601 230.268 94.1625 230.389 94.1649C231.494 94.187 232.608 94.2093 233.691 94.3509C235.042 94.5132 236.323 94.7555 237.632 95.1635C239.481 95.7386 240.756 97.5953 240.686 99.5701C240.679 99.784 240.654 100.014 240.614 100.227L243.455 100.325L246.33 100.425C247.443 100.464 248.553 100.588 249.663 100.713C250.167 100.769 250.672 100.826 251.177 100.874C252.462 101.001 253.559 101.797 253.86 103.126C253.974 103.657 253.956 104.167 253.805 104.689C253.656 105.178 253.393 105.598 253.016 105.963C252.309 106.796 251.156 107.118 250.113 107.148L249.304 107.119H249.304C248.973 107.108 248.643 107.096 248.295 107.117C247.844 107.141 247.394 107.168 246.941 107.196C246.445 107.226 245.947 107.256 245.444 107.282C244.002 107.363 242.561 107.445 241.103 107.51C240.672 107.528 240.241 107.55 239.81 107.572C239.38 107.594 238.949 107.616 238.518 107.634C238.787 108.928 238.184 110.555 236.941 111.105C236.851 111.145 236.76 111.186 236.669 111.227C236.032 111.514 235.38 111.809 234.697 111.9C234.049 111.987 233.394 112.046 232.743 112.105C232.508 112.126 232.274 112.148 232.041 112.17C231.66 112.211 231.272 112.237 230.886 112.263C230.684 112.277 230.483 112.291 230.283 112.307C229.877 112.335 229.468 112.369 229.059 112.404C228.347 112.464 227.631 112.525 226.917 112.552C225.98 112.59 225.042 112.637 224.105 112.684C222.855 112.747 221.605 112.81 220.356 112.851C217.094 112.952 213.849 113.037 210.588 113.121L215.095 113.376C215.34 113.392 215.585 113.408 215.829 113.423C216.784 113.486 217.733 113.547 218.694 113.568C222.775 113.693 226.873 113.803 230.971 113.912C231.921 113.945 232.872 113.946 233.823 113.947C234.394 113.948 234.964 113.948 235.534 113.956L235.63 113.956C238.046 113.975 240.478 113.995 242.894 113.981C243.854 113.949 244.861 114.494 245.498 115.192C246.167 115.924 246.529 116.925 246.494 117.929C246.458 118.933 246.027 119.906 245.309 120.59C245.035 120.844 244.73 121.064 244.409 121.234C244.629 121.588 244.781 121.972 244.881 122.404C245.283 124.148 244.474 125.998 242.922 126.85C242.902 126.849 242.888 126.861 242.872 126.873C242.862 126.882 242.851 126.89 242.838 126.896C242.987 127.379 243.068 127.893 243.049 128.42C243.007 129.637 242.487 130.789 241.614 131.632C241.493 131.76 241.357 131.87 241.222 131.964C241.791 132.231 242.326 132.546 242.755 133.056C243.104 133.48 243.435 133.936 243.699 134.423C244.524 135.885 244.407 137.825 243.531 139.228C243.093 139.921 242.511 140.478 241.802 140.882C241.661 140.937 241.523 140.99 241.386 141.043C241.147 141.134 240.913 141.224 240.679 141.32C238.653 141.546 236.629 141.723 234.59 141.833C234.291 141.848 233.995 141.862 233.699 141.877C233.407 141.891 233.114 141.906 232.818 141.92C232.15 142.572 231.243 142.953 230.268 142.935C229.672 142.943 229.072 142.929 228.473 142.915C228.023 142.904 227.574 142.893 227.127 142.892C226.845 142.893 226.564 142.896 226.282 142.899C225.72 142.905 225.158 142.911 224.596 142.903C224.249 142.891 223.902 142.879 223.554 142.883C222.672 142.869 221.79 142.858 220.905 142.848C220 142.837 219.093 142.826 218.181 142.811C216.018 142.785 213.855 142.742 211.708 142.7L211.602 142.698C211.074 142.679 210.545 142.661 210.032 142.66C206.99 142.62 203.931 142.596 200.889 142.572C201.37 142.622 201.855 142.672 202.34 142.722C202.819 142.772 203.298 142.821 203.773 142.87L203.774 142.87C204.202 142.918 204.63 142.966 205.059 142.997C205.545 143.031 206.036 143.06 206.527 143.09C207.018 143.119 207.509 143.149 207.996 143.182C209.028 143.251 210.066 143.335 211.102 143.419C211.607 143.46 212.112 143.501 212.615 143.54L216.079 143.809C216.821 143.868 217.578 143.977 218.318 144.101C220.858 144.321 223.396 144.558 225.933 144.86C226.858 144.893 227.695 145.564 227.926 146.528C228.055 147.093 227.951 147.699 227.652 148.199C227.389 148.618 226.86 149.094 226.345 149.142C226.007 149.177 225.67 149.215 225.333 149.253C224.248 149.375 223.168 149.496 222.081 149.521C221.842 149.743 221.57 149.948 221.299 150.136C220.93 150.288 220.577 150.424 220.209 150.56C219.561 150.636 218.931 150.68 218.284 150.723C216.758 150.909 215.23 151.085 213.701 151.26C211.436 151.519 209.169 151.779 206.907 152.074C209.977 152.263 213.047 152.436 216.121 152.51C216.754 152.4 217.36 153.031 217.338 153.656C217.316 154.282 216.806 154.676 216.209 154.721C213.999 154.907 211.791 155.131 209.582 155.355C206.949 155.622 204.314 155.89 201.672 156.093C200.996 156.144 200.32 156.195 199.646 156.246C197.756 156.39 195.871 156.533 193.978 156.65C193.157 156.707 192.337 156.738 191.517 156.768C191.244 156.778 190.971 156.788 190.698 156.799C190.035 156.825 189.339 156.851 188.646 156.826C188.249 156.813 187.853 156.799 187.474 156.736C186.569 156.606 185.654 156.294 185.017 155.58C184.491 155.018 184.204 154.25 184.048 153.503C183.765 152.142 184.337 150.465 185.648 149.868L186.808 149.315C186.362 149.3 185.933 149.285 185.487 149.253C181.459 149.047 177.448 148.808 173.438 148.554C171.721 148.444 170.022 148.319 168.307 148.177L168.305 148.177C167.547 148.118 166.789 148.059 166.031 147.983C165.766 147.958 165.504 147.936 165.244 147.915C164.972 147.893 164.702 147.871 164.431 147.845C163.631 147.778 162.813 147.605 162.015 147.438C161.811 147.395 161.608 147.352 161.407 147.311C160.437 147.129 159.495 146.174 159.045 145.318C159.03 145.284 159.014 145.255 158.999 145.226C158.983 145.196 158.968 145.167 158.952 145.133C158.755 145.094 158.558 145.054 158.361 145.03C158.279 145.011 158.201 144.988 158.123 144.965C158.045 144.941 157.968 144.918 157.886 144.899C157.817 144.868 157.749 144.837 157.681 144.807C157.193 144.589 156.702 144.37 156.278 144.052C154.885 144.152 153.492 144.251 152.099 144.368C148.699 144.628 145.316 144.873 141.917 145.117C141.37 145.156 140.819 145.199 140.268 145.241C139.716 145.284 139.164 145.326 138.617 145.365C138.897 145.383 139.182 145.405 139.466 145.428C139.751 145.45 140.035 145.472 140.316 145.49C140.595 145.508 140.873 145.531 141.15 145.553C141.413 145.574 141.675 145.595 141.932 145.612C142.691 145.672 143.464 145.797 144.183 146.053C145 146.345 145.66 146.862 146.198 147.54C146.628 148.016 146.923 148.57 147.082 149.218C147.224 149.882 147.201 150.541 147.013 151.193C146.81 151.812 146.493 152.361 146.014 152.806C145.535 153.251 144.996 153.545 144.378 153.705C142.103 153.972 139.846 154.173 137.545 154.241L137.542 154.241C136.433 154.269 135.325 154.296 134.217 154.34L127.61 154.555C125.245 154.626 122.888 154.74 120.532 154.854C119.606 154.899 118.679 154.944 117.753 154.986C115.644 155.077 113.541 155.211 111.435 155.345C110.365 155.413 109.295 155.482 108.223 155.544C105.19 155.719 102.138 155.959 99.1023 156.216C96.5644 156.424 94.0258 156.649 91.4873 156.873L91.2884 156.892C90.1948 156.993 89.1144 157.094 88.0202 157.165C87.2079 157.219 86.412 157.273 85.5991 157.344C85.251 157.365 84.9366 157.37 84.5891 157.375C84.2408 157.363 83.9067 157.381 83.5587 157.401L83.5129 157.403C83.3942 157.399 83.282 157.409 83.1676 157.42C83.1069 157.425 83.0457 157.431 82.9826 157.434C82.6539 157.373 82.3247 157.329 82.0108 157.318C80.8237 157.211 79.7689 156.63 79.1957 155.523C78.4825 154.164 78.7573 152.46 79.8691 151.411C80.3313 150.966 80.8396 150.621 81.381 150.277C81.8927 149.952 82.6049 149.811 83.216 149.69C83.2513 149.683 83.2863 149.676 83.3209 149.669C82.9003 148.93 82.6824 148.065 82.7107 147.259C82.7378 146.486 82.9615 145.768 83.3651 145.107C83.4528 144.962 83.5566 144.833 83.6603 144.705C83.5942 144.703 83.5441 144.718 83.4774 144.732C81.0207 144.833 78.5703 144.753 76.1199 144.672C75.1174 144.639 74.1149 144.606 73.1119 144.585L65.9388 144.435C62.6948 144.371 59.4647 144.372 56.2187 144.374L56.1326 144.374C55.1893 144.379 54.2447 144.381 53.2996 144.384C50.9627 144.389 48.6223 144.395 46.2888 144.443L46.2775 144.443C42.0931 144.545 37.9086 144.646 33.7083 144.73C32.2514 144.768 30.7967 144.746 29.3419 144.725C28.6145 144.714 27.8871 144.704 27.1595 144.7C26.5559 144.696 25.9522 144.695 25.3485 144.695C24.7448 144.694 24.1411 144.694 23.5375 144.69C23.0089 144.671 22.4802 144.653 21.9528 144.601L16.9028 144.278C15.698 144.203 14.6519 143.375 14.3636 142.163C14.1902 141.448 14.317 140.662 14.7189 140.05C14.8945 139.759 15.1697 139.456 15.4752 139.236C15.1131 138.712 14.8525 138.126 14.7092 137.495C14.4078 136.183 14.6397 134.758 15.3415 133.613C16.0426 132.484 17.1276 131.731 18.3799 131.395C18.6135 131.337 18.8305 131.279 19.0476 131.221L19.0476 131.221C19.0197 131.071 18.9919 130.922 18.9806 130.773L18.9363 130.773C15.049 130.736 11.178 130.7 7.29459 130.548C5.08092 130.471 3.13624 128.855 2.61824 126.645C2.30094 125.316 2.54937 123.891 3.25111 122.746C3.98706 121.569 5.03551 120.913 6.30661 120.513C7.80629 120.035 9.41783 120.08 10.9994 120.125C11.2877 120.133 11.575 120.141 11.8604 120.146C12.9188 120.15 13.9767 120.17 15.0511 120.191C14.5849 119.334 14.3381 118.354 14.3727 117.366C14.3779 117.218 14.3837 117.054 14.4054 116.906C12.4038 116.441 10.7724 114.852 10.2828 112.775C9.93651 111.33 10.2066 109.758 10.9785 108.499C11.4175 107.773 12.1202 107.073 12.898 106.589C12.6672 106.574 12.4362 106.565 12.2062 106.556C11.8607 106.542 11.5176 106.528 11.181 106.496C10.24 106.447 9.28585 106.299 8.3665 106.102L8.44969 106.088C7.54686 105.892 6.74775 105.568 5.91966 105.127C5.39909 104.878 4.93212 104.516 4.53412 104.074C4.2454 103.817 4.0564 103.546 3.83607 103.226C3.21487 102.545 2.81249 101.757 2.59583 100.859C2.3809 99.9128 2.41378 98.9748 2.69389 98.0619C3.23584 96.2848 4.67196 94.9508 6.42443 94.501C6.70816 94.4285 6.99601 94.3561 7.28386 94.2838C7.57172 94.2114 7.85957 94.139 8.1433 94.0665C8.81753 93.9035 9.53156 93.8388 10.2364 93.7749C10.4035 93.7598 10.57 93.7447 10.7354 93.7283C11.7808 93.6329 12.825 93.5704 13.8857 93.5084C14.0017 93.5042 14.1136 93.4958 14.2256 93.4873C14.3375 93.4788 14.4494 93.4704 14.5654 93.4662L14.5671 93.4168C14.5798 93.0548 14.625 92.7103 14.7031 92.3671C14.6205 92.3642 14.5214 92.3607 14.4394 92.3414C13.4482 92.3069 12.5488 92.012 11.7071 91.4884C10.51 90.7218 9.62756 89.4719 9.31315 88.0605C8.63706 85.1701 10.4546 81.9217 13.3704 81.3146C13.6405 81.2538 13.9222 81.2053 14.1954 81.1583C14.2426 81.1502 14.2895 81.1421 14.336 81.134C14.6962 80.1169 15.303 79.291 16.088 78.6161C15.0129 78.4889 13.9403 78.3452 12.8678 78.1876C12.6368 78.083 12.4059 77.9851 12.1707 77.8854C12.0356 77.8281 11.899 77.7702 11.7603 77.7101C11.066 77.282 10.504 76.7056 10.0907 75.9976C9.26422 74.565 9.21463 72.622 10.0907 71.1895C10.3717 70.712 10.7189 70.2674 11.0825 69.8557C11.5199 69.3716 12.0526 69.0773 12.6182 68.8333C12.6257 68.8252 12.6331 68.8172 12.6406 68.8092C12.5125 68.7124 12.3848 68.6003 12.2727 68.4726C11.4297 67.5999 10.9503 66.4308 10.9503 65.2123C10.9503 64.6854 11.0495 64.1749 11.2148 63.6974C11.2017 63.6909 11.1913 63.6819 11.1813 63.6733C11.1661 63.6601 11.1521 63.648 11.1321 63.648C9.61135 62.7424 8.8675 60.8652 9.33034 59.1363C9.44605 58.7082 9.61135 58.3295 9.84277 57.9837C9.5287 57.8026 9.23116 57.572 8.96668 57.3086C8.27242 56.6005 7.87569 55.6126 7.87569 54.6081C7.87569 53.6037 8.27242 52.6157 8.96668 51.9077C9.62788 51.2326 10.6527 50.7221 11.6115 50.788C14.0253 50.8855 16.4552 50.9509 18.8695 51.0159L18.87 51.0159L18.9674 51.0185C19.5376 51.0309 20.1079 51.0502 20.6782 51.0695C21.6287 51.1016 22.5792 51.1338 23.5296 51.1338L23.5325 51.1338C27.631 51.1667 31.7295 51.1997 35.8115 51.2161C36.7725 51.2292 37.723 51.2006 38.6797 51.1717L38.6828 51.1716C38.9264 51.1643 39.1704 51.1569 39.415 51.1502L43.9277 51.0515C40.6713 50.8539 37.4314 50.6563 34.175 50.4422C32.9282 50.3575 31.6814 50.2513 30.4346 50.1451H30.4345H30.4345C29.4993 50.0655 28.5642 49.9859 27.6291 49.9153C26.9159 49.8631 26.2026 49.7777 25.4936 49.6928L25.4929 49.6927H25.4928C25.0847 49.6438 24.678 49.5951 24.2735 49.553C24.0746 49.5304 23.8738 49.5097 23.6724 49.4889L23.6718 49.4889C23.2874 49.4493 22.9008 49.4094 22.5213 49.3554C22.2892 49.3249 22.056 49.2955 21.8222 49.2661C21.1735 49.1844 20.5205 49.1021 19.8765 48.9932C19.1969 48.878 18.5553 48.5612 17.9295 48.2522C17.8398 48.2079 17.7505 48.1638 17.6615 48.1205C16.4383 47.5277 15.8928 45.8811 16.2068 44.5967C15.7771 44.5638 15.3473 44.5268 14.9175 44.4897C14.4877 44.4527 14.0579 44.4156 13.6281 44.3827C12.1735 44.2674 10.7354 44.1357 9.29728 44.004C8.79622 43.9609 8.29968 43.9134 7.80529 43.8661L7.80428 43.866C7.35303 43.8228 6.90357 43.7798 6.45411 43.7405C6.10702 43.7076 5.77645 43.7076 5.44589 43.7076H5.44578H4.63581C3.59441 43.6417 2.45384 43.2795 1.77611 42.4232C1.41245 42.0445 1.1645 41.6164 1.03226 41.1224C0.900017 40.5955 0.900017 40.085 1.03226 39.5581C1.37939 38.2408 2.50343 37.4834 3.79277 37.4011C4.29899 37.3702 4.80521 37.3313 5.31143 37.2924C6.42516 37.2067 7.53888 37.1211 8.65261 37.1211H11.5288H14.372C14.3389 36.9071 14.3224 36.6766 14.3224 36.4625C14.3224 34.4866 15.6613 32.6753 17.5292 32.1648C18.8516 31.8026 20.141 31.605 21.4964 31.4897C22.5837 31.3859 23.6979 31.4023 24.8026 31.4187C24.9239 31.4204 25.0451 31.4222 25.1661 31.4239H26.0257C24.571 31.2757 23.1329 31.1275 21.6948 30.9793C21.0918 30.9299 20.4888 30.8847 19.8858 30.8394L19.8857 30.8394L19.8849 30.8393C19.2815 30.794 18.6781 30.7488 18.0747 30.6994C17.0542 30.622 16.0411 30.5002 15.0304 30.3786C14.535 30.319 14.0403 30.2595 13.5455 30.2054C13.2791 30.1751 13.0121 30.1463 12.7448 30.1174L12.7438 30.1173L12.7438 30.1173C11.7009 30.0046 10.6539 29.8915 9.62788 29.6949V29.662C9.16504 29.5467 8.76832 29.3327 8.38813 28.954C7.85916 28.4106 7.56162 27.6861 7.56162 26.9286C7.56162 25.3643 8.83444 24.0635 10.3552 24.0635C11.6775 24.0635 13.0164 24.1458 14.3553 24.2282L14.3555 24.2282C14.091 23.7177 13.9587 23.125 13.9587 22.5322C13.9587 21.5277 14.3555 20.5562 15.0497 19.8482C15.4299 19.4366 15.8597 19.1731 16.3225 19.0084C16.4052 18.7285 16.5209 18.4651 16.6697 18.2016C16.9837 17.6417 17.4301 17.1972 17.9755 16.8678C18.5376 16.5221 19.1492 16.3574 19.8104 16.3574C21.9427 16.1433 24.075 15.9787 26.2073 15.814L26.2075 15.814C25.6124 15.7317 25.0008 15.6329 24.4057 15.5176C23.8272 15.353 23.3478 15.073 22.9346 14.6449C22.3064 14.0192 21.9593 13.1465 21.9593 12.2573C21.9593 11.3682 22.323 10.4955 22.9346 9.86975C23.5958 9.2111 24.3727 8.94765 25.2818 8.88178C27.7336 8.69481 30.1854 8.69029 32.6372 8.68577H32.6374C33.6403 8.68391 34.6432 8.68206 35.6462 8.66772L42.8202 8.56892C46.0931 8.53599 49.3496 8.42073 52.6225 8.289C53.609 8.2493 54.5971 8.21408 55.5857 8.17884L55.5857 8.17884L55.5858 8.17884C57.877 8.09717 60.1715 8.01538 62.4579 7.87735C64.4953 7.75749 66.5289 7.64152 68.5604 7.52565C70.7154 7.40275 72.868 7.27998 75.0207 7.15284C76.1617 7.08789 77.3188 7.05497 78.4603 7.02249L78.5086 7.02111C78.74 6.77412 79.021 6.57653 79.3516 6.52713C79.6136 6.4782 79.8755 6.44543 80.1375 6.41281H80.0795C80.1707 6.40454 80.2578 6.39215 80.3448 6.37975C80.4319 6.36736 80.519 6.35496 80.6102 6.34669C80.5376 6.35473 80.4612 6.36667 80.3846 6.37872C82.3634 6.11249 84.3538 6.03124 86.3456 5.94993C86.604 5.93938 86.8623 5.92884 87.1207 5.91788C92.3938 5.50623 97.6669 5.07811 102.94 4.63353C106.378 4.35361 109.816 4.09015 113.255 3.84316C116.577 3.59616 119.9 3.41504 123.222 3.25038C126.628 3.06925 130.016 2.93752 133.421 2.82226C134.036 2.80155 134.652 2.77977 135.267 2.75798L135.268 2.75796C138.079 2.65851 140.896 2.5588 143.703 2.5588H144.315C145.323 2.5588 146.216 3.25038 146.48 4.23834C146.629 4.79819 146.563 5.4733 146.265 6.00022C151.489 6.11548 156.712 6.21427 161.936 6.21427H173.044C174.538 6.21427 176.035 6.19999 177.532 6.1857C179.63 6.16569 181.729 6.14566 183.821 6.16488C184.334 6.16488 184.797 6.3954 185.16 6.70826L185.526 6.65256C187.241 6.39106 188.968 6.12766 190.681 5.83555C187.607 5.75322 184.532 5.68736 181.458 5.72029C180.83 5.86849 180.201 5.27571 180.201 4.61706C180.201 3.95842 180.697 3.5797 181.292 3.51383C183.529 3.24766 185.759 2.94286 187.987 2.63835C190.582 2.28354 193.175 1.92912 195.773 1.6367L196.464 1.56109L196.465 1.56101L196.465 1.56098C198.794 1.30642 201.112 1.05309 203.443 0.813395C204.534 0.698132 205.625 0.615801 206.716 0.533471C207.393 0.484073 208.088 0.434674 208.765 0.434674C209.162 0.434674 209.559 0.45114 209.939 0.484073C210.848 0.582869 211.757 0.862793 212.435 1.55437C212.98 2.09775 213.295 2.85519 213.476 3.59616C213.807 4.94638 213.295 6.62593 212.005 7.28457L210.865 7.87735C211.311 7.89382 211.741 7.89382 212.187 7.89382C216.204 7.95968 220.221 8.04201 224.254 8.17374C225.111 8.20659 225.965 8.23944 226.818 8.27229L226.826 8.27258C227.681 8.3055 228.536 8.33842 229.395 8.37133C229.775 8.3878 230.155 8.40838 230.535 8.42897L230.536 8.42897C230.916 8.44955 231.296 8.47013 231.676 8.4866C231.94 8.50306 232.209 8.51541 232.478 8.52776C232.746 8.54011 233.015 8.55246 233.279 8.56892C233.977 8.60309 234.682 8.72389 235.384 8.84418C235.697 8.89781 236.01 8.95134 236.321 8.99704C237.313 9.14524 238.271 10.0673 238.751 10.9071C238.784 10.9565 238.817 11.0224 238.85 11.0882C239.048 11.1047 239.247 11.1376 239.445 11.1706C239.528 11.187 239.606 11.2076 239.685 11.2282C239.763 11.2488 239.842 11.2694 239.924 11.2858C240.03 11.3274 240.137 11.3677 240.243 11.4078L240.243 11.4079C240.767 11.606 241.286 11.8026 241.726 12.1585C242.173 12.422 242.569 12.7513 242.883 13.163C242.933 13.2206 242.978 13.2741 243.024 13.3276C243.069 13.3811 243.115 13.4347 243.164 13.4923C243.693 14.0521 244.073 14.6943 244.272 15.4518C244.487 16.2257 244.487 17.016 244.272 17.8064C243.875 19.3048 242.701 20.4739 241.247 20.902C241.039 20.9632 240.831 21.0252 240.624 21.0872C239.549 21.4086 238.485 21.727 237.362 21.9065C237.792 22.1041 238.222 22.351 238.585 22.598C239.809 23.4213 240.734 24.4916 241.181 25.9077L241.32 25.9369C241.592 25.9934 241.872 26.0516 242.139 26.1218C245.032 26.8298 246.735 30.1395 245.958 33.0046C245.594 34.4042 244.669 35.6227 243.445 36.3472C242.586 36.8412 241.677 37.1047 240.685 37.1047C240.602 37.1211 240.503 37.1211 240.42 37.1211C240.486 37.4669 240.52 37.8127 240.52 38.175V38.2244C240.635 38.2326 240.747 38.2449 240.858 38.2573C240.97 38.2696 241.082 38.282 241.197 38.2902C242.255 38.389 243.297 38.4878 244.338 38.6196C244.503 38.6416 244.669 38.6625 244.835 38.6834C245.537 38.7718 246.248 38.8613 246.917 39.0477C247.198 39.13 247.483 39.2124 247.768 39.2948C248.053 39.3771 248.338 39.4594 248.619 39.5417C250.355 40.0521 251.743 41.4353 252.223 43.2301C252.471 44.1522 252.471 45.0907 252.223 46.0293C251.975 46.9185 251.545 47.6924 250.9 48.351C250.669 48.6639 250.471 48.9273 250.173 49.1743C249.76 49.6024 249.28 49.9482 248.751 50.1787ZM93.2038 18.3827H93.4187V18.0863C93.3525 18.1851 93.2864 18.2839 93.2038 18.3827ZM96.08 9.67215C102.394 9.45809 108.725 9.24404 115.056 9.11231V9.09584C115.354 9.07938 115.651 9.07938 115.949 9.07938H115.453H108.461C108.059 9.07938 107.656 9.07573 107.252 9.07207C106.442 9.06475 105.629 9.0574 104.824 9.07938C103.957 9.10407 103.089 9.12466 102.221 9.14524C101.353 9.16582 100.485 9.1864 99.6174 9.2111C98.7661 9.27697 97.9148 9.34695 97.0635 9.41693L97.0626 9.41701L97.0622 9.41704C96.2113 9.48698 95.3605 9.55693 94.5096 9.62276V9.72155C95.0221 9.70509 95.551 9.68862 96.08 9.67215ZM158.74 17.5776C158.992 17.5502 159.242 17.5229 159.489 17.4936L159.473 17.4771C158.398 17.5265 157.307 17.5759 156.216 17.6253C156.406 17.6417 156.601 17.6623 156.795 17.6829C156.989 17.7035 157.183 17.7241 157.373 17.7405C157.831 17.677 158.288 17.6271 158.74 17.5776ZM147.307 52.6981C147.373 52.6816 147.472 52.6157 147.472 52.6157H147.455L147.455 52.6157C147.009 52.5993 146.563 52.5828 146.116 52.5828C146.315 52.5993 146.513 52.6199 146.712 52.6404C146.91 52.661 147.108 52.6816 147.307 52.6981ZM180.763 45.1731C180.697 45.2389 180.532 45.3542 180.532 45.3542C183.144 45.1731 185.755 45.0084 188.384 44.8602L183.871 44.7614C183.57 44.756 183.268 44.7487 182.965 44.7415C182.352 44.7268 181.736 44.712 181.127 44.712C181.011 44.8767 180.896 45.0249 180.763 45.1731ZM186.334 15.353C186.846 15.3365 187.375 15.3365 187.904 15.3365C189.425 15.2953 190.95 15.2583 192.475 15.2212C194 15.1842 195.525 15.1471 197.046 15.106C196.566 15.073 196.083 15.0401 195.599 15.0072C195.116 14.9742 194.632 14.9413 194.153 14.9084C193.938 14.8919 193.723 14.8796 193.508 14.8672C193.293 14.8549 193.078 14.8425 192.863 14.826C192.376 14.8096 191.884 14.7972 191.392 14.7849C190.9 14.7725 190.409 14.7602 189.921 14.7437C188.888 14.7105 187.848 14.6625 186.81 14.6145C186.303 14.5911 185.797 14.5677 185.293 14.5461L181.921 14.3979C181.914 14.444 181.913 14.4901 181.911 14.5363C181.909 14.6054 181.907 14.6746 181.887 14.7437C181.821 14.9907 181.706 15.2212 181.557 15.4353C183.144 15.4024 184.747 15.3694 186.334 15.353ZM155.368 130.378C154.644 130.27 153.936 130.18 153.211 130.089L153.212 130.072L152.668 130.004L152.784 130.008C153.347 129.995 153.909 129.989 154.471 129.984C155.034 129.979 155.597 129.974 156.16 129.961C156.187 129.962 156.209 129.972 156.229 129.982C156.245 129.99 156.259 129.997 156.274 129.998C156.539 130.077 156.817 130.145 157.086 130.211C157.132 130.222 157.179 130.233 157.225 130.245C157.256 130.363 157.304 130.474 157.351 130.582C157.371 130.626 157.389 130.669 157.407 130.712C156.799 130.602 156.177 130.505 155.566 130.409L155.368 130.378ZM107.215 111.172C107.149 111.153 107.052 111.084 107.052 111.084L107.069 111.085H107.07C107.516 111.084 107.962 111.083 108.408 111.098C108.209 111.108 108.01 111.121 107.811 111.135C107.612 111.149 107.413 111.162 107.215 111.172ZM95.2563 136.078L94.8784 136.1C94.3891 136.132 93.904 136.16 93.419 136.189C92.9344 136.217 92.4499 136.246 91.9611 136.278C91.9881 136.248 92.0151 136.218 92.0419 136.189C92.1863 136.03 92.3268 135.876 92.445 135.685C92.5005 135.594 92.5431 135.495 92.5849 135.397C92.6092 135.341 92.6332 135.285 92.6594 135.232C93.2627 135.236 93.8617 135.245 94.4607 135.253C95.0602 135.262 95.6598 135.27 96.2636 135.275L107.524 135.37C104.906 135.509 102.288 135.649 99.6689 135.805C98.2031 135.906 96.7237 135.992 95.2563 136.078ZM84.6517 137.655C84.5321 137.766 84.4118 137.894 84.3075 138.038L84.3069 138.055C83.7983 137.938 83.3055 137.839 82.8122 137.756C83.1187 137.742 83.4254 137.724 83.732 137.705C84.0386 137.687 84.3453 137.669 84.6517 137.655ZM74.0417 102.488C74.1054 102.556 74.2666 102.677 74.2666 102.677C71.6628 102.406 69.0584 102.15 66.4369 101.911L70.9503 101.969C71.2509 101.974 71.5533 101.977 71.8563 101.98C72.47 101.987 73.0861 101.994 73.6944 102.015C73.8042 102.183 73.9147 102.336 74.0417 102.488Z" fill="#001928"/>
</mask>
<g mask="url(#mask0_177_26891)">
<g filter="url(#filter1_i_177_26891)">
<rect x="0.628906" y="-0.169922" width="253.825" height="157.822" fill="#DED9D6"/>
<rect x="0.628906" y="-0.169922" width="253.825" height="157.822" fill="#F46D00"/>
</g>
</g>
</g>
<defs>
<filter id="filter0_i_177_26891" x="0.933594" y="0.43457" width="253" height="157" filterUnits="userSpaceOnUse" color-interpolation-filters="sRGB">
<feFlood flood-opacity="0" result="BackgroundImageFix"/>
<feBlend mode="normal" in="SourceGraphic" in2="BackgroundImageFix" result="shape"/>
<feColorMatrix in="SourceAlpha" type="matrix" values="0 0 0 0 0 0 0 0 0 0 0 0 0 0 0 0 0 0 127 0" result="hardAlpha"/>
<feOffset/>
<feGaussianBlur stdDeviation="1.83333"/>
<feComposite in2="hardAlpha" operator="arithmetic" k2="-1" k3="1"/>
<feColorMatrix type="matrix" values="0 0 0 0 0 0 0 0 0 0 0 0 0 0 0 0 0 0 0.25 0"/>
<feBlend mode="normal" in2="shape" result="effect1_innerShadow_177_26891"/>
</filter>
<filter id="filter1_i_177_26891" x="0.628906" y="-0.169922" width="253.824" height="157.822" filterUnits="userSpaceOnUse" color-interpolation-filters="sRGB">
<feFlood flood-opacity="0" result="BackgroundImageFix"/>
<feBlend mode="normal" in="SourceGraphic" in2="BackgroundImageFix" result="shape"/>
<feColorMatrix in="SourceAlpha" type="matrix" values="0 0 0 0 0 0 0 0 0 0 0 0 0 0 0 0 0 0 127 0" result="hardAlpha"/>
<feOffset/>
<feGaussianBlur stdDeviation="1.79667"/>
<feComposite in2="hardAlpha" operator="arithmetic" k2="-1" k3="1"/>
<feColorMatrix type="matrix" values="0 0 0 0 0 0 0 0 0 0 0 0 0 0 0 0 0 0 0.25 0"/>
<feBlend mode="normal" in2="shape" result="effect1_innerShadow_177_26891"/>
</filter>
</defs>
</svg>
