<svg width="19" height="19" viewBox="0 0 19 19" fill="none" xmlns="http://www.w3.org/2000/svg">
<path d="M9.13403 17.9377C9.13403 17.9377 0.720847 10.4275 1.28287 4.93976C1.28362 4.89224 1.28518 4.84456 1.28756 4.79673C1.40146 2.50784 3.34931 0.744659 5.6382 0.858558C7.06138 0.929378 8.7372 1.92011 9.64512 3.82773C9.72102 3.95169 9.76871 4.04772 9.79564 4.12693C9.869 4.05271 9.94959 3.96307 10.0374 3.84725C11.1302 2.03919 12.8961 1.21972 14.3193 1.29054C16.6082 1.40444 18.3714 3.35229 18.2575 5.64118C18.2551 5.68901 18.2519 5.73661 18.248 5.78397C18.2624 11.3004 9.13403 17.9377 9.13403 17.9377Z" fill="#F9DDBD"/>
</svg>
