<svg width="28" height="22" viewBox="0 0 28 22" fill="none" xmlns="http://www.w3.org/2000/svg">
<path d="M27.6958 16.5046C27.6448 16.4447 27.6032 16.372 27.5403 16.3278C27.032 15.9713 26.5253 15.6133 26.0084 15.2688C25.0131 14.6049 24.0144 13.9464 23.0122 13.293C22.2675 12.8069 21.4989 12.3544 20.7696 11.8465C20.0463 11.3436 19.3087 10.843 18.6695 10.2465C17.827 9.46152 17.0748 8.58405 16.2833 7.74651C15.7919 7.22563 15.303 6.70255 14.809 6.18543C14.5231 5.88653 14.3465 5.52947 14.2171 5.14839C14.1353 4.9093 14.2742 4.71686 14.5345 4.7174C14.6836 4.71784 14.8361 4.74792 14.981 4.78616C15.7366 4.9882 16.4885 5.20247 17.2443 5.40141C18.0902 5.62424 18.9358 5.85093 19.7887 6.04539C20.5709 6.22316 21.3631 6.36187 22.1515 6.51124C22.2136 6.52287 22.2865 6.47685 22.3541 6.45849C22.3096 6.41207 22.274 6.34592 22.2196 6.32227C21.6301 6.06644 21.0414 5.80988 20.4456 5.56847C19.7821 5.29966 19.1124 5.04449 18.4444 4.78786C17.6962 4.50009 16.946 4.21998 16.1978 3.93221C15.5726 3.69167 14.9519 3.44049 14.3257 3.20378C13.5578 2.91271 12.7872 2.62847 12.0157 2.34653C11.4663 2.14621 10.9187 1.94134 10.3618 1.76315C9.39251 1.45274 8.45449 1.04073 7.4361 0.888438C7.05256 0.830569 6.67792 0.832869 6.30571 0.961723C6.21849 0.992288 6.09375 0.979875 6.00596 0.942153C5.12034 0.561446 4.19924 0.367459 3.23337 0.451258C2.64285 0.502542 2.14354 0.777876 1.71863 1.16861C1.55148 1.3224 1.38624 1.3902 1.1555 1.37096C0.954762 1.35476 0.749185 1.38797 0.547198 1.41282C0.494497 1.41951 0.413363 1.47132 0.407443 1.51058C0.401174 1.55681 0.450625 1.63141 0.496769 1.66085C0.633617 1.74911 0.77336 1.84293 0.925512 1.89472C1.24775 2.00461 1.48927 2.20589 1.71604 2.44832C2.12968 2.89009 2.55909 3.3179 2.9894 3.74343C3.26695 4.01787 3.56288 4.27382 3.84043 4.54826C3.89187 4.59891 3.92015 4.70038 3.91328 4.7745C3.85706 5.41007 3.96512 6.02899 4.0521 6.65695C4.17829 7.56533 4.56632 8.37814 4.8766 9.22276C5.1659 10.0105 5.59372 10.7252 5.98474 11.4622C6.38523 12.2159 6.74262 12.9907 7.13738 13.748C7.46553 14.3771 7.79925 15.0057 8.16816 15.6128C8.70286 16.4918 9.23903 17.3733 9.83525 18.212C10.4997 19.1471 11.2009 20.0609 12.0344 20.8656C12.3381 21.1584 12.6316 21.4623 12.9563 21.7306C13.0889 21.8403 13.2855 21.8912 13.4621 21.931C13.6566 21.9756 13.7292 21.8892 13.6938 21.6912C13.6796 21.6099 13.647 21.5307 13.6192 21.4517C13.4034 20.8305 13.1257 20.2226 12.9876 19.5859C12.8296 18.8551 12.6257 18.1205 12.7283 17.3507C12.7813 16.9554 12.753 16.5514 12.5243 16.1887C12.4882 16.1318 12.4976 16.0392 12.5052 15.9651C12.5434 15.6133 12.6076 15.2628 12.622 14.9098C12.6289 14.7403 12.5438 14.5677 12.5114 14.4374C12.5441 14.356 12.6023 14.286 12.5873 14.2364C12.4484 13.7742 12.2951 13.3159 12.1514 12.855C12.1267 12.7769 12.1342 12.6897 12.1209 12.6075C12.0695 12.2846 12.0141 11.9615 11.9651 11.6388C11.952 11.5512 11.9565 11.4615 11.9506 11.3728C11.929 11.042 11.9202 10.7088 11.8746 10.3808C11.8593 10.273 11.7515 10.1745 11.677 10.0785C11.5949 9.9736 11.6138 9.91404 11.7204 9.82705C12.0288 9.57712 12.3197 9.71182 12.6284 9.82181C13.5516 10.1493 14.4807 10.4546 15.4401 10.6753C15.7829 10.7544 16.1116 10.9422 16.4149 11.1303C17.3486 11.7088 18.2677 12.3084 19.1894 12.905C20.5293 13.7722 21.8564 14.6581 23.2066 15.5087C24.3183 16.2093 25.4565 16.8718 26.5837 17.5484C26.6762 17.6042 26.7798 17.6427 26.8775 17.6887C26.8934 17.6708 26.9094 17.6522 26.9254 17.6344C26.8362 17.5454 26.7573 17.4415 26.6553 17.3697C26.1408 17.0098 25.6203 16.6589 25.1032 16.3027C24.1933 15.6764 23.2782 15.0577 22.3777 14.418C21.8459 14.0401 21.3234 13.648 20.827 13.2269C20.5674 13.0061 20.3718 12.7125 20.1533 12.4465C20.1226 12.4092 20.1283 12.3436 20.1174 12.2911C20.1726 12.2814 20.2394 12.2475 20.2813 12.2659C20.5267 12.3735 20.7788 12.4737 21.0052 12.6129C21.9923 13.219 22.969 13.8408 23.9536 14.4498C24.5994 14.8496 25.2453 15.2479 25.9024 15.6296C26.4276 15.935 26.9691 16.214 27.5046 16.5029C27.5479 16.526 27.5998 16.5347 27.6475 16.5503C27.6626 16.534 27.6777 16.5169 27.6928 16.5006L27.6958 16.5046Z" fill="#F9DDBD"/>
</svg>
