<svg width="237" height="148" viewBox="0 0 237 148" fill="none" xmlns="http://www.w3.org/2000/svg">
<g filter="url(#filter0_i_72_45579)">
<mask id="mask0_72_45579" style="mask-type:alpha" maskUnits="userSpaceOnUse" x="0" y="0" width="237" height="148">
<path fill-rule="evenodd" clip-rule="evenodd" d="M231.561 46.9934C230.774 47.3788 230.019 47.6563 229.171 47.8105L229.248 47.8259C228.384 47.9801 227.49 48.088 226.611 48.1034C226.296 48.1219 225.976 48.1238 225.653 48.1256C225.439 48.1269 225.223 48.1281 225.008 48.1343C225.717 48.6122 226.349 49.2906 226.735 49.9843C227.413 51.1869 227.613 52.6669 227.243 54.0082C226.719 55.9354 225.146 57.3692 223.265 57.7392C223.281 57.8779 223.281 58.0321 223.281 58.1709C223.281 59.0959 223.019 60.0055 222.556 60.7918C223.558 60.8072 224.545 60.8226 225.532 60.8535C225.798 60.8582 226.066 60.8601 226.335 60.8619C227.811 60.8719 229.315 60.8821 230.697 61.3777C231.869 61.7939 232.825 62.4414 233.473 63.5669C234.09 64.6615 234.275 66.0028 233.935 67.2362C233.38 69.2867 231.515 70.7359 229.448 70.7359C225.823 70.7513 222.212 70.6595 218.586 70.5673L218.547 70.5663C218.532 70.7051 218.501 70.8438 218.47 70.9826C218.67 71.0443 218.871 71.1059 219.087 71.1676C220.243 71.5222 221.23 72.2622 221.847 73.3414C222.314 74.1712 222.525 75.1427 222.458 76.0949C222.584 76.3399 222.68 76.5842 222.746 76.8422C223.172 77.0113 223.564 77.2719 223.905 77.6694C224.529 78.3546 224.867 79.2766 224.834 80.2164C224.815 80.7711 224.672 81.3215 224.409 81.7905C225.66 81.7571 226.911 81.7236 228.144 81.7667C229.561 81.8162 230.705 83.0748 230.654 84.5386C230.63 85.2473 230.328 85.9156 229.818 86.4068C229.451 86.7488 229.074 86.9362 228.639 87.029L228.638 87.0598C227.675 87.2103 226.695 87.2821 225.719 87.3536C225.469 87.372 225.218 87.3903 224.969 87.4099C224.506 87.4445 224.043 87.4841 223.579 87.5237C222.633 87.6045 221.684 87.6856 220.73 87.7247C220.166 87.7513 219.602 87.774 219.038 87.7968C218.474 87.8195 217.91 87.8422 217.346 87.8688C216.001 87.9607 214.655 88.0525 213.294 88.1438L214.096 88.1718C214.209 88.1742 214.322 88.1765 214.435 88.1788C215.465 88.1995 216.504 88.2203 217.515 88.3529C218.774 88.5049 219.97 88.7318 221.191 89.1138C222.916 89.6522 224.105 91.3907 224.04 93.2396C224.033 93.4399 224.01 93.6551 223.972 93.8543L226.623 93.9469L229.304 94.0405C230.342 94.0768 231.378 94.1931 232.413 94.3095C232.884 94.3624 233.355 94.4153 233.826 94.4606C235.025 94.5797 236.048 95.325 236.328 96.5689C236.435 97.0663 236.418 97.5439 236.277 98.0327C236.138 98.4906 235.893 98.8831 235.541 99.2257C234.882 100.005 233.807 100.307 232.834 100.334L232.078 100.308H232.078C231.77 100.297 231.462 100.287 231.137 100.306C230.717 100.328 230.297 100.354 229.875 100.379C229.412 100.408 228.947 100.436 228.478 100.46C227.133 100.536 225.788 100.613 224.428 100.673C224.027 100.69 223.625 100.711 223.223 100.732C222.821 100.752 222.419 100.773 222.018 100.79C222.268 102.002 221.706 103.525 220.546 104.04C220.462 104.077 220.377 104.116 220.292 104.154C219.699 104.423 219.09 104.698 218.453 104.784C217.849 104.865 217.237 104.921 216.63 104.976C216.411 104.996 216.193 105.016 215.975 105.037C215.62 105.075 215.258 105.1 214.898 105.124C214.71 105.137 214.522 105.15 214.336 105.165C213.957 105.191 213.576 105.223 213.194 105.256C212.53 105.312 211.862 105.369 211.195 105.395C210.321 105.43 209.447 105.474 208.573 105.518C207.407 105.577 206.241 105.636 205.076 105.675C202.033 105.769 199.006 105.848 195.964 105.927L200.168 106.167C200.397 106.181 200.625 106.196 200.853 106.211C201.744 106.269 202.629 106.326 203.525 106.345C207.33 106.463 211.151 106.565 214.972 106.668L214.977 106.668C215.863 106.699 216.751 106.7 217.638 106.701C218.17 106.701 218.702 106.702 219.234 106.709L219.325 106.71C221.578 106.727 223.846 106.745 226.099 106.733C226.995 106.702 227.934 107.213 228.528 107.867C229.152 108.552 229.49 109.489 229.457 110.429C229.424 111.369 229.022 112.28 228.352 112.92C228.097 113.158 227.812 113.364 227.513 113.523C227.717 113.855 227.859 114.214 227.953 114.619C228.328 116.252 227.573 117.984 226.126 118.782C226.095 118.781 226.079 118.811 226.047 118.825C226.186 119.278 226.261 119.758 226.244 120.251C226.204 121.392 225.719 122.47 224.905 123.259C224.793 123.379 224.666 123.482 224.539 123.57C225.07 123.82 225.569 124.115 225.969 124.592C226.295 124.989 226.604 125.417 226.85 125.872C227.62 127.241 227.51 129.058 226.693 130.372C226.285 131.021 225.742 131.542 225.081 131.92C224.949 131.971 224.82 132.021 224.692 132.07C224.47 132.156 224.251 132.24 224.033 132.33C222.143 132.542 220.255 132.708 218.354 132.811C218.075 132.824 217.801 132.838 217.527 132.851C217.253 132.865 216.978 132.879 216.7 132.892C216.077 133.503 215.231 133.859 214.322 133.842C213.766 133.85 213.206 133.836 212.647 133.823C212.227 133.813 211.808 133.803 211.391 133.802C211.129 133.803 210.867 133.806 210.604 133.809C210.08 133.814 209.555 133.82 209.031 133.812C208.707 133.801 208.383 133.789 208.059 133.793C207.236 133.78 206.413 133.77 205.587 133.76C204.743 133.751 203.897 133.741 203.047 133.726C201.028 133.701 199.01 133.662 197.006 133.622L196.91 133.62C196.417 133.603 195.924 133.586 195.446 133.584C192.608 133.547 189.755 133.525 186.917 133.503C187.362 133.549 187.812 133.596 188.262 133.642C188.711 133.689 189.161 133.735 189.607 133.782C190.006 133.826 190.406 133.871 190.806 133.901C191.26 133.932 191.718 133.959 192.176 133.987C192.634 134.015 193.092 134.042 193.546 134.073C194.508 134.138 195.477 134.217 196.443 134.296C196.914 134.334 197.385 134.372 197.855 134.409L201.086 134.661C201.778 134.716 202.485 134.818 203.175 134.934C205.544 135.14 207.912 135.362 210.278 135.645C211.141 135.675 211.921 136.304 212.137 137.206C212.257 137.735 212.16 138.302 211.881 138.771C211.636 139.163 211.142 139.609 210.663 139.654C210.347 139.687 210.033 139.722 209.719 139.758C208.706 139.872 207.699 139.985 206.685 140.009C206.462 140.217 206.208 140.409 205.955 140.585C205.611 140.727 205.282 140.854 204.938 140.981C204.334 141.053 203.747 141.094 203.143 141.135C201.72 141.309 200.294 141.473 198.868 141.637C196.755 141.88 194.64 142.123 192.531 142.399C195.394 142.576 198.258 142.738 201.126 142.807C201.715 142.705 202.281 143.295 202.261 143.881C202.24 144.466 201.764 144.835 201.208 144.877C199.146 145.052 197.087 145.261 195.026 145.471C192.57 145.721 190.112 145.972 187.647 146.162C187.016 146.209 186.386 146.257 185.757 146.306C183.994 146.44 182.236 146.574 180.47 146.683C179.704 146.737 178.94 146.766 178.175 146.794C177.92 146.803 177.665 146.813 177.41 146.823C176.792 146.848 176.143 146.871 175.496 146.849C175.126 146.836 174.756 146.823 174.404 146.764C173.559 146.642 172.706 146.35 172.112 145.682C171.621 145.155 171.353 144.436 171.208 143.737C170.944 142.463 171.477 140.893 172.7 140.334L173.782 139.816C173.366 139.802 172.966 139.788 172.55 139.758C168.792 139.565 165.051 139.342 161.31 139.103C159.709 139.001 158.124 138.884 156.524 138.751C155.816 138.695 155.108 138.64 154.401 138.569C154.153 138.545 153.909 138.525 153.667 138.505C153.413 138.484 153.161 138.464 152.909 138.439C152.162 138.376 151.399 138.215 150.655 138.058C150.465 138.018 150.275 137.978 150.088 137.94C149.183 137.769 148.304 136.875 147.885 136.073C147.87 136.042 147.856 136.014 147.841 135.987C147.827 135.959 147.813 135.932 147.798 135.901C147.614 135.863 147.431 135.826 147.246 135.804C147.17 135.786 147.097 135.764 147.025 135.742C146.952 135.721 146.88 135.699 146.803 135.681C146.74 135.652 146.676 135.623 146.612 135.595C146.157 135.391 145.699 135.186 145.303 134.888C144.004 134.981 142.705 135.075 141.405 135.184C138.233 135.428 135.078 135.657 131.907 135.886C131.397 135.922 130.882 135.962 130.368 136.002C129.854 136.041 129.339 136.081 128.829 136.117C129.09 136.134 129.356 136.155 129.621 136.176C129.886 136.197 130.152 136.218 130.414 136.235C130.674 136.251 130.933 136.272 131.191 136.293C131.437 136.313 131.681 136.333 131.922 136.349C132.63 136.404 133.351 136.522 134.021 136.762C134.783 137.035 135.399 137.519 135.901 138.154C136.302 138.6 136.577 139.119 136.726 139.725C136.858 140.347 136.837 140.963 136.661 141.574C136.471 142.154 136.175 142.668 135.729 143.084C135.282 143.501 134.779 143.776 134.203 143.926C132.081 144.176 129.976 144.364 127.829 144.428C126.794 144.454 125.76 144.479 124.724 144.52L118.561 144.722C116.355 144.789 114.156 144.896 111.959 145.002C111.094 145.044 110.231 145.086 109.367 145.126C107.4 145.211 105.438 145.336 103.474 145.462C102.476 145.526 101.477 145.59 100.477 145.648C97.6482 145.812 94.8015 146.036 91.9696 146.277C89.6022 146.472 87.2343 146.682 84.8663 146.893L84.6815 146.91C83.6612 147.005 82.6531 147.099 81.6322 147.165C80.8744 147.216 80.1321 147.267 79.3737 147.333C79.0491 147.353 78.7557 147.358 78.4316 147.362C78.1067 147.351 77.7949 147.368 77.4702 147.386L77.4278 147.389C77.317 147.385 77.2123 147.395 77.1056 147.404C77.049 147.409 76.9919 147.415 76.9331 147.418C76.6265 147.361 76.3193 147.319 76.0266 147.309C74.9192 147.209 73.9353 146.665 73.4007 145.628C72.7354 144.356 72.9917 142.76 74.0288 141.778C74.46 141.361 74.9341 141.039 75.439 140.717C75.9164 140.413 76.5808 140.28 77.1508 140.167C77.1838 140.16 77.2164 140.154 77.2487 140.147C76.8563 139.455 76.6531 138.646 76.6795 137.891C76.7047 137.167 76.9133 136.495 77.2898 135.876C77.3717 135.74 77.4685 135.62 77.5652 135.5C77.5142 135.498 77.4733 135.507 77.4254 135.518C77.4155 135.52 77.4053 135.522 77.3947 135.525C75.103 135.62 72.8172 135.544 70.5314 135.469C69.5963 135.438 68.6612 135.407 67.7256 135.388L61.0345 135.246C58.0088 135.187 54.9961 135.188 51.9685 135.189L51.8873 135.189C51.0071 135.194 50.1257 135.196 49.2438 135.198C47.0643 135.204 44.8814 135.209 42.7049 135.254H42.7048C38.7981 135.349 34.8913 135.444 30.9697 135.523C29.6108 135.558 28.2538 135.538 26.8967 135.518C26.2182 135.508 25.5397 135.498 24.8609 135.495C24.2979 135.491 23.7348 135.49 23.1717 135.49C22.6085 135.49 22.0454 135.489 21.4824 135.485L21.4817 135.485C20.9888 135.468 20.4959 135.451 20.0041 135.403L15.2935 135.099C14.1697 135.029 13.1939 134.255 12.9249 133.119C12.7632 132.45 12.8814 131.714 13.2563 131.141C13.4201 130.869 13.6769 130.584 13.9618 130.378C13.624 129.888 13.3809 129.34 13.2473 128.749C12.9662 127.521 13.1825 126.186 13.8371 125.114C14.4911 124.057 15.5032 123.351 16.6713 123.037C16.889 122.983 17.0914 122.929 17.2937 122.874L17.2942 122.874L17.2942 122.874C17.2682 122.734 17.2422 122.595 17.2316 122.455L17.1927 122.455C13.5658 122.421 9.95413 122.386 6.3309 122.244C4.26597 122.172 2.45197 120.659 1.96877 118.59C1.6728 117.346 1.90453 116.012 2.55913 114.939C3.24562 113.837 4.22362 113.223 5.4093 112.848C6.80821 112.401 8.31147 112.444 9.78678 112.485C10.0557 112.493 10.3237 112.5 10.5899 112.505C11.5772 112.508 12.564 112.527 13.5662 112.547C13.1313 111.745 12.9011 110.827 12.9334 109.902C12.9382 109.764 12.9436 109.61 12.9639 109.471C11.0968 109.036 9.575 107.548 9.11832 105.604C8.79529 104.25 9.04728 102.778 9.76728 101.6C10.1767 100.92 10.8322 100.264 11.5578 99.8115C11.3425 99.7978 11.127 99.789 10.9126 99.7803C10.5903 99.7672 10.2702 99.7542 9.95621 99.7247C9.07838 99.6786 8.18836 99.5396 7.33078 99.3553L7.40838 99.3426C6.56621 99.159 5.8208 98.8552 5.04835 98.4426C4.56277 98.2097 4.12718 97.8705 3.75592 97.4565C3.48661 97.2156 3.3103 96.9627 3.10478 96.6624C2.52531 96.0251 2.14996 95.2869 1.94787 94.4468C1.74739 93.5605 1.77806 92.6823 2.03934 91.8275C2.54487 90.1637 3.88449 88.9146 5.51921 88.4935C5.78387 88.4256 6.05238 88.3578 6.32089 88.2901C6.58941 88.2223 6.85792 88.1545 7.12258 88.0866C7.75155 87.934 8.41764 87.8734 9.07513 87.8136C9.23094 87.7994 9.38627 87.7853 9.54051 87.77C10.5156 87.6806 11.4897 87.6221 12.4792 87.5641C12.5873 87.5601 12.6917 87.5522 12.7961 87.5443C12.9006 87.5364 13.005 87.5284 13.1131 87.5245L13.1147 87.4783C13.1266 87.1393 13.1687 86.8168 13.2416 86.4954H13.2416C13.1645 86.4927 13.0721 86.4895 12.9956 86.4714C12.071 86.4391 11.2321 86.163 10.4469 85.6728C9.33025 84.955 8.5071 83.7847 8.21382 82.4632C7.58317 79.7569 9.27854 76.7154 11.9984 76.147C12.2503 76.0901 12.513 76.0447 12.7678 76.0007C12.8119 75.9931 12.8557 75.9855 12.8992 75.9779C13.2353 75.0252 13.8016 74.2517 14.5343 73.6197C13.5304 73.5005 12.5288 73.3658 11.5273 73.2181C11.3117 73.1201 11.0962 73.0284 10.8768 72.935C10.7508 72.8814 10.6235 72.8272 10.4942 72.771C9.84657 72.3701 9.32231 71.8305 8.93683 71.1676C8.16586 69.8263 8.11961 68.0071 8.93683 66.6658C9.19896 66.2187 9.52276 65.8024 9.86199 65.417C10.2714 64.9621 10.7703 64.6862 11.3 64.4572C11.3058 64.451 11.3115 64.4448 11.3173 64.4385C11.1971 64.3476 11.0773 64.2421 10.9722 64.1219C10.1858 63.3048 9.73863 62.2102 9.73863 61.0693C9.73863 60.576 9.83115 60.098 9.98534 59.6509C9.97318 59.6449 9.96341 59.6364 9.95416 59.6283C9.93994 59.616 9.92692 59.6047 9.90825 59.6047C8.48967 58.7567 7.7958 56.9992 8.22754 55.3804C8.33548 54.9795 8.48967 54.6249 8.70554 54.3012C8.41257 54.1316 8.13503 53.9157 7.88832 53.669C7.24071 53.0061 6.87064 52.0811 6.87064 51.1406C6.87064 50.2002 7.24071 49.2751 7.88832 48.6122C8.50509 47.9801 9.46109 47.5022 10.3554 47.5638C12.6074 47.6551 14.8745 47.7164 17.1269 47.7772L17.217 47.7797C17.749 47.7912 18.2809 47.8093 18.8129 47.8274C19.6995 47.8575 20.5861 47.8876 21.4727 47.8876C25.2967 47.9184 29.1207 47.9493 32.9293 47.9647C33.8257 47.977 34.7124 47.9501 35.6048 47.9231C35.833 47.9162 36.0615 47.9093 36.2907 47.903L40.5002 47.8105C37.4626 47.6255 34.4404 47.4405 31.4028 47.2401C30.2397 47.1608 29.0766 47.0613 27.9134 46.9619C27.0412 46.8873 26.169 46.8128 25.2967 46.7467C24.6314 46.6978 23.9661 46.6178 23.3047 46.5384C22.9238 46.4926 22.5441 46.447 22.1666 46.4075C21.9809 46.3863 21.7934 46.3669 21.6053 46.3475L21.605 46.3474C21.2466 46.3104 20.886 46.2731 20.5322 46.2225C20.316 46.194 20.0987 46.1665 19.8809 46.139L19.8806 46.1389L19.8802 46.1389C19.275 46.0624 18.6659 45.9854 18.0651 45.8834C17.4311 45.7755 16.8326 45.4788 16.2488 45.1895L16.2484 45.1893C16.1649 45.1479 16.0818 45.1067 15.9989 45.0662C14.8578 44.5112 14.349 42.9695 14.642 41.767C14.2411 41.7361 13.8402 41.7014 13.4393 41.6667C13.0384 41.6321 12.6375 41.5974 12.2366 41.5665C10.8797 41.4586 9.53818 41.3353 8.1967 41.2119C7.72899 41.1716 7.2655 41.1271 6.80402 41.0827L6.80379 41.0827L6.80357 41.0827C6.38279 41.0423 5.96369 41.002 5.54458 40.9653C5.22082 40.9344 4.91247 40.9344 4.60412 40.9344H4.604H3.84846C2.87704 40.8728 1.81311 40.5336 1.18092 39.7319C0.841691 39.3773 0.610402 38.9764 0.487047 38.5139C0.363693 38.0206 0.363693 37.5426 0.487047 37.0493C0.810853 35.8159 1.85937 35.1067 3.06207 35.0296C3.53428 35.0007 4.0065 34.9643 4.47871 34.9279L4.47886 34.9278C5.51769 34.8477 6.55652 34.7675 7.59535 34.7675H10.2783H12.9304C12.8996 34.5671 12.8842 34.3513 12.8842 34.1508C12.8842 32.3008 14.1331 30.6049 15.8755 30.127C17.1091 29.7878 18.3118 29.6028 19.5762 29.4948C20.5904 29.3976 21.6296 29.413 22.6601 29.4283H22.6601L22.9992 29.4332H23.801C22.4458 29.2946 21.1059 29.156 19.766 29.0174L19.7612 29.0169C19.1984 28.9707 18.6356 28.9283 18.0728 28.8859C17.51 28.8435 16.9472 28.8011 16.3844 28.7548C15.4324 28.6824 14.4873 28.5683 13.5446 28.4545L13.5442 28.4545C13.0822 28.3987 12.6209 28.343 12.1595 28.2923C11.9107 28.264 11.6613 28.2369 11.4117 28.2098C10.4388 28.1043 9.4622 27.9984 8.50509 27.8144V27.7835C8.07335 27.6756 7.70328 27.4752 7.34864 27.1206C6.85522 26.6118 6.57767 25.9335 6.57767 25.2243C6.57767 23.7596 7.76496 22.5417 9.18354 22.5417C10.4171 22.5417 11.666 22.6188 12.9149 22.6958L12.915 22.6959C12.6683 22.2179 12.5449 21.6629 12.5449 21.1079C12.5449 20.1674 12.915 19.2578 13.5626 18.5949C13.9173 18.2094 14.3182 17.9628 14.7499 17.8086C14.827 17.5465 14.9349 17.2998 15.0737 17.0531C15.3667 16.529 15.783 16.1127 16.2918 15.8044C16.8161 15.4806 17.3866 15.3264 18.0034 15.3264C19.9925 15.126 21.9816 14.9718 23.9707 14.8177C23.4156 14.7406 22.845 14.6481 22.29 14.5401C21.7503 14.386 21.3031 14.1239 20.9176 13.723C20.3317 13.1372 20.0079 12.3201 20.0079 11.4875C20.0079 10.655 20.3471 9.83789 20.9176 9.25203C21.5344 8.63535 22.2591 8.38867 23.1072 8.327C25.3942 8.15194 27.6812 8.14771 29.9683 8.14347C30.9039 8.14174 31.8395 8.14001 32.7751 8.12658L39.4671 8.03407C42.5201 8.00324 45.5577 7.89532 48.6107 7.77198C49.5309 7.73481 50.4525 7.70184 51.3746 7.66885L51.3747 7.66884L51.3748 7.66884C53.5121 7.59237 55.6524 7.51579 57.7852 7.38655C59.6855 7.27434 61.5822 7.16576 63.477 7.05729L63.4777 7.05725C65.4878 6.94218 67.4959 6.82723 69.5039 6.70819C70.5682 6.64738 71.6476 6.61655 72.7124 6.58614L72.7574 6.58486C72.9732 6.3536 73.2354 6.16859 73.5437 6.12234C73.7904 6.07609 74.0372 6.04525 74.2839 6.01442L74.284 6.01439H74.2233C74.3083 6.00669 74.3894 5.99514 74.4705 5.98359C74.5516 5.97205 74.6328 5.9605 74.7178 5.9528C74.6482 5.9605 74.5748 5.97205 74.5014 5.9836L74.4743 5.98785C76.331 5.73502 78.1988 5.65849 80.0678 5.58191C80.3088 5.57203 80.5498 5.56216 80.7908 5.5519C85.7096 5.16647 90.6283 4.76562 95.5471 4.34936C98.7543 4.08727 101.962 3.84059 105.169 3.60933C108.268 3.37807 111.367 3.20849 114.467 3.05431C117.643 2.88472 120.804 2.76139 123.98 2.65347C124.554 2.63407 125.128 2.61367 125.703 2.59327C128.325 2.50015 130.953 2.40679 133.571 2.40679H134.142C135.082 2.40679 135.915 3.05431 136.162 3.97935C136.3 4.50353 136.239 5.13564 135.961 5.62899C140.834 5.73691 145.706 5.82941 150.579 5.82941H160.94C162.334 5.82941 163.731 5.81604 165.127 5.80266C167.084 5.78392 169.042 5.76517 170.994 5.78316C171.472 5.78316 171.904 5.999 172.243 6.29193L172.583 6.23979C174.183 5.99495 175.795 5.74832 177.393 5.47482C174.525 5.39773 171.657 5.33606 168.789 5.3669C168.203 5.50565 167.617 4.95063 167.617 4.33394C167.617 3.71725 168.08 3.36266 168.635 3.30099C170.721 3.05177 172.801 2.76639 174.879 2.48128C177.3 2.14906 179.719 1.81722 182.142 1.54343L182.787 1.47265C184.96 1.23427 187.122 0.997033 189.297 0.772565C190.314 0.664648 191.332 0.587564 192.349 0.510481L192.35 0.510472C192.982 0.46422 193.629 0.417969 194.262 0.417969C194.632 0.417969 195.002 0.433386 195.356 0.46422C196.204 0.556724 197.052 0.818816 197.685 1.46634C198.193 1.97511 198.486 2.6843 198.656 3.37807C198.964 4.64229 198.486 6.21484 197.284 6.83153L196.22 7.38655C196.636 7.40197 197.037 7.40197 197.453 7.40197C201.2 7.46364 204.947 7.54072 208.709 7.66406L211.107 7.75656L213.505 7.84907C213.859 7.86449 214.214 7.88376 214.569 7.90303C214.923 7.9223 215.278 7.94157 215.633 7.95699C215.879 7.97241 216.13 7.98397 216.381 7.99553C216.631 8.00709 216.882 8.01866 217.128 8.03407C217.779 8.06606 218.437 8.17917 219.092 8.29179C219.384 8.34201 219.675 8.39213 219.966 8.43492C220.891 8.57368 221.785 9.43704 222.232 10.2233C222.263 10.2696 222.294 10.3312 222.325 10.3929C222.51 10.4083 222.695 10.4392 222.88 10.47C222.957 10.4854 223.03 10.5047 223.103 10.524C223.177 10.5432 223.25 10.5625 223.327 10.5779C223.426 10.6169 223.525 10.6546 223.624 10.6922C224.113 10.8777 224.597 11.0618 225.008 11.395C225.424 11.6417 225.794 11.95 226.087 12.3355C226.133 12.3894 226.176 12.4395 226.218 12.4897C226.26 12.5398 226.303 12.5899 226.349 12.6438C226.843 13.168 227.197 13.7693 227.382 14.4785C227.583 15.2031 227.583 15.9431 227.382 16.6831C227.012 18.0861 225.917 19.1807 224.56 19.5816C224.366 19.6388 224.173 19.6968 223.98 19.7547L223.98 19.7549C222.977 20.0559 221.984 20.354 220.937 20.522C221.338 20.707 221.739 20.9383 222.078 21.1695C223.219 21.9404 224.082 22.9425 224.499 24.2684L224.629 24.2957C224.882 24.3486 225.143 24.4031 225.393 24.4688C228.091 25.1318 229.68 28.2306 228.955 30.9132C228.616 32.2237 227.752 33.3646 226.611 34.0429C225.809 34.5054 224.961 34.7521 224.036 34.7521C223.959 34.7675 223.867 34.7675 223.789 34.7675C223.851 35.0913 223.882 35.4151 223.882 35.7542V35.8005C223.99 35.8082 224.094 35.8197 224.198 35.8313L224.198 35.8313L224.198 35.8314C224.302 35.8429 224.406 35.8545 224.514 35.8622C225.501 35.9547 226.472 36.0472 227.444 36.1705C227.598 36.1912 227.752 36.2107 227.908 36.2303C228.562 36.3131 229.226 36.3969 229.849 36.5713C230.111 36.6484 230.377 36.7255 230.643 36.8026C230.909 36.8797 231.175 36.9568 231.437 37.0339C233.057 37.5118 234.352 38.8068 234.799 40.4873C235.03 41.3507 235.03 42.2295 234.799 43.1083C234.568 43.9408 234.167 44.6654 233.565 45.2821C233.349 45.575 233.164 45.8217 232.887 46.0529C232.501 46.4538 232.054 46.7775 231.561 46.9934ZM86.4651 17.2227H86.6656V16.9452C86.6039 17.0377 86.5422 17.1302 86.4651 17.2227ZM89.1481 9.06703C95.0383 8.8666 100.944 8.66618 106.849 8.54284V8.52743C107.127 8.51201 107.404 8.51201 107.682 8.51201H107.22H100.697C100.323 8.51201 99.9464 8.50859 99.5695 8.50517H99.5694H99.5693C98.8137 8.49832 98.0559 8.49144 97.3049 8.51201C96.4954 8.53513 95.6859 8.5544 94.8764 8.57368L94.8758 8.57369C94.0665 8.59296 93.2572 8.61223 92.4478 8.63535C91.654 8.69699 90.8602 8.76249 90.0664 8.828L90.066 8.82803L90.0656 8.82806C89.2715 8.89358 88.4774 8.95911 87.6832 9.02078V9.11328C88.1612 9.09786 88.6547 9.08245 89.1481 9.06703ZM147.598 16.4689L147.599 16.4689C147.833 16.4432 148.066 16.4177 148.297 16.3902L148.281 16.3748C147.28 16.421 146.263 16.4672 145.247 16.5134L145.244 16.5135C145.421 16.529 145.602 16.5482 145.783 16.5675L145.783 16.5675C145.965 16.5868 146.146 16.6061 146.323 16.6215C146.749 16.562 147.176 16.5152 147.598 16.4689ZM136.933 49.3522C136.994 49.3368 137.087 49.2751 137.087 49.2751H137.071L137.071 49.2751C136.655 49.2597 136.239 49.2443 135.822 49.2443C136.007 49.2597 136.192 49.279 136.378 49.2983L136.378 49.2983L136.378 49.2983C136.563 49.3176 136.748 49.3368 136.933 49.3522ZM168.141 42.3066C168.08 42.3682 167.925 42.4761 167.925 42.4761C170.362 42.3066 172.798 42.1524 175.25 42.0136L171.04 41.9211C170.76 41.916 170.477 41.9092 170.195 41.9024H170.195H170.195C169.622 41.8887 169.048 41.8749 168.48 41.8749C168.373 42.029 168.265 42.1678 168.141 42.3066ZM174.802 14.3706H174.802C176.221 14.332 177.643 14.2973 179.066 14.2626C180.488 14.2279 181.911 14.1933 183.329 14.1547C182.882 14.1239 182.431 14.093 181.98 14.0622C181.529 14.0314 181.078 14.0005 180.631 13.9697C180.431 13.9543 180.23 13.9427 180.03 13.9312L180.03 13.9312C179.829 13.9196 179.629 13.908 179.428 13.8926C178.973 13.8772 178.515 13.8656 178.056 13.8541C177.597 13.8425 177.138 13.8309 176.684 13.8155C175.72 13.7845 174.749 13.7394 173.781 13.6946L173.78 13.6945L173.78 13.6945C173.308 13.6726 172.836 13.6507 172.366 13.6305L169.221 13.4918C169.214 13.5349 169.213 13.5781 169.212 13.6213V13.6215C169.21 13.6861 169.208 13.7508 169.19 13.8155C169.128 14.0468 169.02 14.2626 168.881 14.4631C170.362 14.4322 171.857 14.4014 173.338 14.386C173.815 14.3706 174.309 14.3706 174.802 14.3706ZM144.454 122.085C143.779 121.984 143.119 121.899 142.443 121.814L142.443 121.799L141.936 121.735L142.044 121.739C142.569 121.726 143.094 121.721 143.619 121.716C144.143 121.712 144.668 121.707 145.193 121.694C145.219 121.695 145.239 121.705 145.257 121.714C145.272 121.722 145.286 121.728 145.3 121.729C145.547 121.803 145.806 121.867 146.058 121.929C146.101 121.939 146.144 121.95 146.187 121.96C146.216 122.071 146.261 122.175 146.305 122.276C146.323 122.317 146.34 122.358 146.357 122.398C145.79 122.295 145.21 122.204 144.64 122.114L144.454 122.085ZM99.5367 104.102C99.4756 104.085 99.3853 104.02 99.3853 104.02L99.4007 104.021C99.8173 104.02 100.234 104.019 100.65 104.033C100.465 104.042 100.279 104.055 100.093 104.068C99.9078 104.081 99.7222 104.094 99.5367 104.102ZM88.3819 127.422L88.0296 127.442C87.5732 127.473 87.1209 127.499 86.6686 127.526C86.2165 127.552 85.7644 127.579 85.3083 127.609C85.3335 127.581 85.3586 127.553 85.3837 127.526C85.5183 127.377 85.6494 127.233 85.7597 127.054C85.8114 126.968 85.8511 126.876 85.8901 126.785C85.9128 126.732 85.9352 126.68 85.9597 126.629C86.5225 126.634 87.0814 126.642 87.6402 126.65C88.1994 126.658 88.7586 126.665 89.3217 126.67L99.8255 126.759C97.3832 126.89 94.9409 127.02 92.4981 127.166C91.1308 127.261 89.7508 127.341 88.3819 127.422ZM78.4901 128.899C78.3784 129.003 78.2663 129.122 78.1689 129.258L78.1684 129.273C77.6939 129.164 77.2343 129.071 76.7742 128.993C77.0601 128.98 77.3461 128.963 77.6321 128.946C77.9182 128.929 78.2042 128.912 78.4901 128.899ZM68.5929 95.9719C68.6524 96.0357 68.8027 96.149 68.8027 96.149C66.3739 95.8945 63.9445 95.6554 61.4992 95.4311L65.7093 95.4856C65.9897 95.4903 66.2719 95.4933 66.5546 95.4964C67.127 95.5026 67.7017 95.5089 68.269 95.5287C68.3715 95.6865 68.4745 95.829 68.5929 95.9719Z" fill="#001928"/>
</mask>
<g mask="url(#mask0_72_45579)">
<g filter="url(#filter1_i_72_45579)">
<rect x="0.111328" y="-0.146484" width="237" height="148" fill="#DED9D6"/>
<rect x="0.111328" y="-0.146484" width="237" height="148" fill="#F46D00"/>
</g>
</g>
</g>
<defs>
<filter id="filter0_i_72_45579" x="0.394531" y="0.417969" width="236.002" height="147" filterUnits="userSpaceOnUse" color-interpolation-filters="sRGB">
<feFlood flood-opacity="0" result="BackgroundImageFix"/>
<feBlend mode="normal" in="SourceGraphic" in2="BackgroundImageFix" result="shape"/>
<feColorMatrix in="SourceAlpha" type="matrix" values="0 0 0 0 0 0 0 0 0 0 0 0 0 0 0 0 0 0 127 0" result="hardAlpha"/>
<feOffset/>
<feGaussianBlur stdDeviation="1.70755"/>
<feComposite in2="hardAlpha" operator="arithmetic" k2="-1" k3="1"/>
<feColorMatrix type="matrix" values="0 0 0 0 0 0 0 0 0 0 0 0 0 0 0 0 0 0 0.25 0"/>
<feBlend mode="normal" in2="shape" result="effect1_innerShadow_72_45579"/>
</filter>
<filter id="filter1_i_72_45579" x="0.111328" y="-0.146484" width="237" height="148" filterUnits="userSpaceOnUse" color-interpolation-filters="sRGB">
<feFlood flood-opacity="0" result="BackgroundImageFix"/>
<feBlend mode="normal" in="SourceGraphic" in2="BackgroundImageFix" result="shape"/>
<feColorMatrix in="SourceAlpha" type="matrix" values="0 0 0 0 0 0 0 0 0 0 0 0 0 0 0 0 0 0 127 0" result="hardAlpha"/>
<feOffset/>
<feGaussianBlur stdDeviation="1.6734"/>
<feComposite in2="hardAlpha" operator="arithmetic" k2="-1" k3="1"/>
<feColorMatrix type="matrix" values="0 0 0 0 0 0 0 0 0 0 0 0 0 0 0 0 0 0 0.25 0"/>
<feBlend mode="normal" in2="shape" result="effect1_innerShadow_72_45579"/>
</filter>
</defs>
</svg>
