<svg width="441" height="276" viewBox="0 0 441 276" fill="none" xmlns="http://www.w3.org/2000/svg">
<g filter="url(#filter0_i_304_5127)">
<mask id="mask0_304_5127" style="mask-type:alpha" maskUnits="userSpaceOnUse" x="0" y="0" width="441" height="276">
<path fill-rule="evenodd" clip-rule="evenodd" d="M431.769 87.5351C430.302 88.255 428.892 88.7733 427.31 89.0613L427.453 89.0901C425.842 89.3781 424.174 89.5796 422.534 89.6084C421.946 89.643 421.349 89.6464 420.747 89.6499C420.346 89.6522 419.944 89.6545 419.542 89.666C420.865 90.5587 422.045 91.8257 422.764 93.1215C424.03 95.3676 424.404 98.132 423.713 100.637C422.735 104.237 419.8 106.915 416.29 107.606C416.319 107.865 416.319 108.153 416.319 108.412C416.319 110.14 415.83 111.839 414.967 113.307C416.837 113.336 418.678 113.365 420.52 113.423C421.016 113.431 421.516 113.435 422.018 113.438L422.019 113.438C424.772 113.457 427.578 113.476 430.158 114.402C432.344 115.179 434.128 116.389 435.336 118.491C436.487 120.535 436.833 123.04 436.2 125.344C435.164 129.174 431.683 131.881 427.827 131.881C421.062 131.909 414.325 131.738 407.56 131.566L407.487 131.564C407.458 131.823 407.4 132.082 407.343 132.341L407.343 132.341C407.717 132.457 408.091 132.572 408.494 132.687C410.651 133.349 412.493 134.731 413.644 136.747C414.516 138.298 414.909 140.113 414.785 141.893C415.017 142.349 415.196 142.804 415.319 143.285C416.114 143.601 416.846 144.087 417.482 144.83C418.646 146.11 419.277 147.832 419.216 149.587C419.18 150.623 418.914 151.651 418.423 152.527C420.757 152.465 423.091 152.402 425.391 152.483C428.036 152.575 430.171 154.926 430.075 157.66C430.029 158.984 429.467 160.232 428.514 161.149C427.83 161.788 427.127 162.138 426.315 162.312L426.313 162.369C424.516 162.65 422.688 162.784 420.867 162.918C420.399 162.952 419.933 162.986 419.467 163.023C418.603 163.088 417.739 163.161 416.874 163.236C415.108 163.386 413.339 163.538 411.559 163.611C410.506 163.661 409.453 163.703 408.401 163.746C407.349 163.788 406.297 163.83 405.245 163.88C402.734 164.052 400.224 164.223 397.684 164.394L399.179 164.446C399.39 164.451 399.601 164.455 399.812 164.459C401.735 164.498 403.674 164.537 405.559 164.784C407.909 165.068 410.14 165.492 412.418 166.205C415.636 167.211 417.855 170.458 417.734 173.912C417.721 174.286 417.678 174.688 417.608 175.06L422.553 175.233L427.556 175.407C429.494 175.475 431.426 175.692 433.358 175.91C434.236 176.009 435.114 176.107 435.993 176.192C438.23 176.414 440.139 177.807 440.663 180.13C440.861 181.059 440.83 181.951 440.567 182.864C440.307 183.719 439.85 184.452 439.194 185.092C437.963 186.547 435.957 187.111 434.142 187.163L432.733 187.114L432.732 187.114C432.157 187.094 431.582 187.074 430.977 187.11C430.193 187.151 429.408 187.199 428.62 187.247C427.757 187.3 426.89 187.353 426.015 187.398C423.506 187.54 420.996 187.683 418.459 187.796C417.709 187.828 416.959 187.866 416.21 187.905C415.46 187.943 414.71 187.982 413.96 188.013C414.428 190.277 413.379 193.122 411.215 194.083C411.058 194.154 410.9 194.225 410.741 194.297C409.634 194.799 408.498 195.314 407.309 195.474C406.182 195.625 405.041 195.729 403.908 195.833C403.5 195.87 403.092 195.907 402.687 195.946C402.023 196.018 401.348 196.064 400.677 196.11C400.325 196.134 399.974 196.158 399.627 196.185C398.92 196.234 398.209 196.295 397.496 196.355C396.257 196.46 395.012 196.566 393.768 196.614C392.137 196.681 390.505 196.763 388.874 196.845C386.699 196.955 384.523 197.065 382.349 197.137C376.672 197.313 371.024 197.462 365.348 197.609L373.192 198.056C373.618 198.083 374.044 198.11 374.469 198.138C376.132 198.247 377.783 198.355 379.456 198.39C386.559 198.61 393.691 198.801 400.824 198.993C402.478 199.051 404.133 199.052 405.788 199.054C406.781 199.055 407.774 199.056 408.767 199.069L408.932 199.07C413.138 199.104 417.37 199.137 421.576 199.113C423.248 199.057 424.999 200.011 426.108 201.231C427.273 202.511 427.903 204.262 427.841 206.017C427.78 207.773 427.03 209.475 425.779 210.67C425.303 211.115 424.771 211.5 424.214 211.797C424.596 212.416 424.86 213.087 425.035 213.843C425.735 216.893 424.326 220.128 421.626 221.618C421.591 221.617 421.566 221.637 421.539 221.66C421.521 221.674 421.502 221.689 421.479 221.7C421.738 222.544 421.879 223.443 421.847 224.363C421.773 226.493 420.867 228.507 419.348 229.981C419.139 230.204 418.902 230.398 418.665 230.562C419.657 231.029 420.588 231.58 421.334 232.471C421.941 233.212 422.518 234.011 422.978 234.862C424.414 237.419 424.209 240.812 422.684 243.265C421.922 244.478 420.91 245.451 419.676 246.157C419.431 246.253 419.19 246.346 418.952 246.438C418.536 246.598 418.129 246.755 417.72 246.924C414.195 247.319 410.672 247.629 407.124 247.821C406.605 247.847 406.093 247.872 405.581 247.897C405.069 247.923 404.557 247.948 404.038 247.973C402.876 249.114 401.298 249.779 399.601 249.748C398.564 249.761 397.52 249.737 396.477 249.712C395.693 249.693 394.911 249.675 394.134 249.672C393.644 249.675 393.155 249.68 392.665 249.685C391.686 249.696 390.707 249.706 389.728 249.691C389.124 249.67 388.521 249.649 387.916 249.657C386.38 249.632 384.844 249.613 383.304 249.595C381.729 249.577 380.15 249.558 378.564 249.532C374.792 249.485 371.021 249.41 367.278 249.336L367.113 249.333C366.193 249.301 365.273 249.269 364.381 249.266C359.086 249.196 353.762 249.154 348.466 249.113C349.295 249.2 350.131 249.286 350.967 249.373C351.809 249.46 352.651 249.548 353.486 249.635L353.487 249.635C354.232 249.718 354.977 249.802 355.724 249.857C356.571 249.915 357.425 249.967 358.28 250.018C359.135 250.07 359.989 250.121 360.837 250.18C362.632 250.301 364.439 250.448 366.242 250.595C367.121 250.666 368 250.738 368.876 250.806L374.905 251.277C376.197 251.379 377.514 251.569 378.802 251.787C383.222 252.172 387.641 252.586 392.056 253.115C393.666 253.171 395.122 254.346 395.524 256.031C395.748 257.019 395.568 258.078 395.048 258.953C394.59 259.687 393.669 260.519 392.773 260.603C392.185 260.664 391.598 260.73 391.012 260.796C389.123 261.009 387.243 261.222 385.352 261.265C384.935 261.654 384.462 262.012 383.99 262.342C383.347 262.607 382.735 262.845 382.093 263.082C380.966 263.215 379.869 263.292 378.744 263.368C376.088 263.693 373.428 264 370.767 264.306C366.823 264.76 362.878 265.214 358.941 265.73C364.284 266.061 369.628 266.363 374.978 266.493C376.079 266.301 377.135 267.404 377.096 268.497C377.058 269.591 376.171 270.28 375.131 270.359C371.285 270.685 367.442 271.076 363.597 271.468C359.014 271.935 354.428 272.403 349.829 272.759C348.653 272.847 347.478 272.937 346.304 273.026C343.015 273.278 339.733 273.528 336.438 273.732C335.01 273.833 333.583 273.886 332.157 273.939C331.681 273.956 331.205 273.974 330.729 273.993C329.575 274.039 328.365 274.083 327.157 274.041L327.157 274.041C326.467 274.017 325.777 273.993 325.119 273.884C323.543 273.656 321.95 273.11 320.842 271.861C319.927 270.878 319.427 269.535 319.155 268.229C318.663 265.849 319.657 262.916 321.939 261.872L323.959 260.906C323.183 260.879 322.435 260.853 321.66 260.797C314.648 260.436 307.667 260.019 300.688 259.574C297.7 259.383 294.743 259.164 291.757 258.916L291.757 258.916C290.437 258.812 289.116 258.708 287.797 258.576C287.334 258.531 286.879 258.494 286.427 258.457C285.953 258.418 285.482 258.38 285.013 258.334C283.619 258.217 282.195 257.916 280.808 257.622C280.452 257.547 280.098 257.472 279.748 257.401C278.061 257.083 276.42 255.412 275.638 253.915C275.611 253.856 275.584 253.805 275.557 253.754C275.53 253.702 275.503 253.651 275.476 253.592C275.133 253.523 274.79 253.453 274.446 253.412C274.304 253.379 274.168 253.338 274.033 253.297C273.898 253.256 273.762 253.216 273.619 253.182C273.501 253.128 273.382 253.075 273.263 253.021C272.414 252.641 271.559 252.257 270.821 251.701C268.397 251.875 265.973 252.05 263.547 252.253C257.63 252.709 251.742 253.137 245.826 253.564C244.873 253.632 243.913 253.706 242.953 253.781C241.993 253.855 241.034 253.93 240.082 253.997C240.57 254.029 241.065 254.068 241.56 254.107C242.056 254.146 242.551 254.185 243.039 254.216C243.524 254.248 244.009 254.287 244.49 254.326C244.949 254.363 245.404 254.4 245.853 254.43C247.174 254.534 248.519 254.753 249.77 255.201C251.192 255.711 252.34 256.616 253.278 257.801C254.026 258.634 254.539 259.603 254.816 260.736C255.064 261.897 255.024 263.049 254.696 264.19C254.341 265.272 253.79 266.233 252.957 267.01C252.123 267.788 251.184 268.302 250.109 268.582C246.149 269.048 242.222 269.401 238.216 269.52C236.285 269.568 234.355 269.616 232.424 269.692L220.924 270.068C216.808 270.193 212.705 270.393 208.605 270.592C206.993 270.671 205.381 270.749 203.769 270.823C200.098 270.981 196.438 271.216 192.774 271.451C190.911 271.57 189.048 271.689 187.182 271.799C181.903 272.104 176.591 272.524 171.307 272.973C166.89 273.337 162.472 273.73 158.053 274.123L157.705 274.156C155.802 274.333 153.923 274.509 152.019 274.633C150.605 274.727 149.22 274.823 147.805 274.946C147.199 274.983 146.652 274.992 146.047 275C145.441 274.979 144.859 275.011 144.253 275.045L144.174 275.05C143.967 275.043 143.772 275.06 143.573 275.079C143.467 275.088 143.361 275.098 143.251 275.104C142.679 274.998 142.106 274.92 141.559 274.901C139.493 274.713 137.657 273.698 136.66 271.762C135.419 269.384 135.897 266.405 137.832 264.571C138.636 263.792 139.521 263.189 140.463 262.588C141.354 262.02 142.593 261.773 143.657 261.561C143.718 261.549 143.779 261.537 143.84 261.525C143.108 260.231 142.728 258.72 142.778 257.31C142.825 255.957 143.214 254.703 143.917 253.546C144.069 253.292 144.25 253.068 144.43 252.844C144.335 252.84 144.259 252.857 144.17 252.878C144.151 252.882 144.132 252.886 144.112 252.89C139.836 253.068 135.571 252.927 131.306 252.786C129.561 252.728 127.817 252.67 126.071 252.634C124.024 252.591 121.985 252.548 119.945 252.505C117.828 252.46 115.711 252.415 113.586 252.371C107.94 252.259 102.317 252.261 96.6674 252.264L96.5186 252.264C94.8765 252.273 93.2323 252.277 91.5871 252.281C87.52 252.291 83.4467 252.301 79.3855 252.385C72.0959 252.563 64.8063 252.74 57.489 252.888C54.9534 252.953 52.4213 252.915 49.8893 252.878C48.6233 252.859 47.3573 252.841 46.0908 252.835C45.0403 252.827 43.9896 252.826 42.9388 252.826C41.8881 252.825 40.8373 252.824 39.7868 252.816C38.8667 252.784 37.9467 252.752 37.0286 252.662L28.2392 252.096C26.1422 251.965 24.3215 250.518 23.8197 248.397C23.5178 247.148 23.7385 245.772 24.438 244.702C24.7436 244.194 25.2227 243.663 25.7543 243.278C25.1242 242.363 24.6705 241.339 24.4211 240.235C23.8966 237.94 24.3002 235.448 25.5216 233.445C26.742 231.471 28.6304 230.153 30.81 229.567C31.2165 229.466 31.5943 229.364 31.9721 229.262L31.9721 229.261C31.9236 229.001 31.8752 228.74 31.8555 228.48L31.7818 228.479C25.0148 228.415 18.2762 228.351 11.516 228.086C7.66313 227.951 4.27844 225.124 3.37685 221.261C2.8246 218.936 3.25697 216.445 4.47837 214.442C5.75928 212.383 7.58412 211.237 9.79645 210.536C12.4066 209.701 15.2115 209.78 17.9642 209.857C18.466 209.872 18.966 209.886 19.4629 209.894C21.3051 209.901 23.1462 209.936 25.0162 209.973C24.2048 208.475 23.7752 206.76 23.8355 205.033C23.8445 204.774 23.8545 204.487 23.8923 204.229C20.4086 203.415 17.5691 200.637 16.717 197.005C16.1143 194.477 16.5845 191.728 17.9279 189.527C18.6919 188.257 19.9149 187.032 21.2687 186.186C20.8669 186.161 20.4649 186.144 20.0646 186.128C19.4633 186.104 18.8661 186.079 18.2804 186.024C16.6425 185.938 14.9818 185.678 13.3817 185.334L13.5265 185.311C11.9551 184.967 10.5643 184.4 9.12295 183.63C8.21691 183.194 7.40416 182.561 6.71144 181.788C6.20894 181.338 5.87997 180.865 5.4965 180.304C4.41529 179.114 3.71493 177.735 3.33784 176.166C2.96377 174.511 3.021 172.871 3.50851 171.274C4.45178 168.166 6.95136 165.833 10.0015 165.047C10.4954 164.92 10.9964 164.793 11.4974 164.667C11.9984 164.54 12.4994 164.414 12.9932 164.287C14.1668 164.002 15.4096 163.889 16.6364 163.777C16.9271 163.751 17.217 163.724 17.5048 163.696C19.3243 163.529 21.1417 163.419 22.9879 163.311C23.1897 163.304 23.3845 163.289 23.5794 163.274C23.7742 163.259 23.969 163.244 24.1708 163.237L24.1738 163.151C24.1959 162.518 24.2745 161.915 24.4106 161.315C24.2669 161.31 24.0943 161.304 23.9516 161.27C22.2264 161.21 20.661 160.694 19.196 159.778C17.1124 158.438 15.5766 156.252 15.0293 153.784C13.8526 148.729 17.0159 143.048 22.0909 141.986C22.5608 141.88 23.0509 141.795 23.5261 141.713C23.6085 141.699 23.6904 141.685 23.7716 141.671C24.3987 139.891 25.4551 138.447 26.8218 137.267C24.9496 137.044 23.0816 136.793 21.2137 136.517C20.8119 136.334 20.4101 136.163 20.001 135.989L20.0005 135.988L20.0003 135.988C19.7652 135.888 19.5275 135.787 19.2861 135.682C18.0777 134.933 17.0995 133.925 16.3803 132.687C14.9417 130.182 14.8554 126.784 16.3803 124.279C16.8694 123.443 17.4736 122.666 18.1065 121.946C18.8693 121.098 19.7985 120.583 20.7852 120.155C20.7969 120.143 20.8086 120.13 20.8204 120.117C20.5967 119.948 20.3737 119.751 20.178 119.527C18.7107 118.001 17.8763 115.957 17.8763 113.826C17.8763 112.904 18.049 112.012 18.3367 111.176C18.314 111.165 18.2957 111.149 18.2785 111.134C18.252 111.111 18.2277 111.09 18.1928 111.09C15.5459 109.506 14.2513 106.224 15.0568 103.2C15.2582 102.451 15.5459 101.789 15.9487 101.184C15.4021 100.868 14.8842 100.464 14.4239 100.004C13.2155 98.7655 12.525 97.0377 12.525 95.2812C12.525 93.5247 13.2155 91.7969 14.4239 90.5587C15.5747 89.3781 17.3585 88.4854 19.0272 88.6006C23.2292 88.7711 27.4592 88.8855 31.662 88.9991L31.83 89.0037C32.8226 89.0253 33.8151 89.059 34.8077 89.0928L34.8084 89.0928C36.4625 89.149 38.1166 89.2053 39.7707 89.2053C46.9058 89.2629 54.0409 89.3205 61.1472 89.3493C62.8197 89.3722 64.474 89.3221 66.1392 89.2716L66.1406 89.2716L66.1421 89.2715C66.5669 89.2587 66.9924 89.2458 67.4192 89.2341L75.2735 89.0613C69.6057 88.7157 63.9667 88.3702 58.2989 87.9958C56.1292 87.8478 53.9594 87.6621 51.7897 87.4764L51.7884 87.4763C50.1608 87.3371 48.5333 87.1978 46.9058 87.0744C45.6644 86.983 44.423 86.8337 43.1889 86.6852L43.1882 86.6852C42.4777 86.5997 41.7696 86.5145 41.0654 86.4409C40.7197 86.4013 40.3706 86.3652 40.0205 86.3289L40.0193 86.3288L40.018 86.3287C39.349 86.2594 38.6762 86.1898 38.0157 86.0953C37.6118 86.0419 37.206 85.9906 36.7991 85.9391L36.799 85.9391L36.7988 85.939C35.6697 85.7961 34.5333 85.6523 33.4124 85.4618C32.2296 85.2603 31.1128 84.7063 30.0236 84.1659C29.8676 84.0885 29.7121 84.0114 29.5572 83.9356C27.4282 82.899 26.4787 80.0194 27.0254 77.7733C26.2774 77.7158 25.5295 77.651 24.7816 77.5862C24.0334 77.5214 23.2853 77.4566 22.5372 77.399C20.0066 77.1975 17.5047 76.9673 15.0029 76.737L14.9993 76.7367C14.1268 76.6614 13.2622 76.5783 12.4013 76.4955L12.4002 76.4953C11.615 76.4198 10.8329 76.3446 10.0508 76.276C9.44666 76.2184 8.87132 76.2184 8.29599 76.2184L8.29576 76.2184L6.886 76.2184C5.07346 76.1032 3.08829 75.4697 1.9087 73.9723C1.27575 73.31 0.844193 72.5613 0.614029 71.6974C0.383865 70.776 0.383865 69.8833 0.614029 68.9618C1.21821 66.6582 3.17461 65.3335 5.41871 65.1896C6.29982 65.1356 7.18094 65.0675 8.06206 64.9995L8.06236 64.9994C10.0007 64.8497 11.9389 64.7 13.8772 64.7L18.8833 64.7L23.8318 64.7C23.7743 64.3257 23.7455 63.9226 23.7455 63.5482C23.7455 60.0927 26.0759 56.9252 29.327 56.0325C31.6286 55.399 33.8727 55.0534 36.2319 54.8519C38.1244 54.6702 40.0635 54.699 41.9863 54.7276C42.1974 54.7307 42.4083 54.7338 42.619 54.7367L44.115 54.7367C41.5836 54.4776 39.0809 54.2184 36.5782 53.9593L36.5772 53.9592C35.527 53.8728 34.4769 53.7936 33.4268 53.7144L33.4252 53.7143C32.3756 53.6352 31.326 53.556 30.2764 53.4697C28.5002 53.3344 26.7369 53.1213 24.9778 52.9088C24.1156 52.8046 23.2545 52.7005 22.3933 52.6058C21.9292 52.5529 21.4638 52.5024 20.998 52.4518L20.9979 52.4518C19.1827 52.2547 17.3605 52.0569 15.5747 51.7131L15.5747 51.6555C14.7691 51.454 14.0786 51.0796 13.4169 50.4173C12.4963 49.4671 11.9784 48.2 11.9784 46.8754C11.9784 44.1398 14.1937 41.865 16.8406 41.865C19.1422 41.865 21.4725 42.0089 23.8029 42.1529L23.8031 42.1529C23.3427 41.2602 23.1126 40.2236 23.1126 39.187C23.1126 37.4304 23.8031 35.7315 25.0114 34.4932C25.6731 33.7733 26.4212 33.3126 27.2268 33.0246C27.3706 32.5351 27.572 32.0744 27.8309 31.6136C28.3776 30.6346 29.1544 29.8571 30.1038 29.2812C31.082 28.6765 32.1465 28.3885 33.2973 28.3885C37.0087 28.0142 40.7201 27.7262 44.4315 27.4383C43.3958 27.2943 42.3313 27.1215 41.2955 26.9199C40.2886 26.632 39.4542 26.1424 38.735 25.3938C37.6417 24.2995 37.0375 22.7733 37.0375 21.2184C37.0375 19.6634 37.6705 18.1372 38.735 17.043C39.8858 15.8911 41.238 15.4304 42.8204 15.3152C47.0877 14.9882 51.355 14.9803 55.6223 14.9724L55.6223 14.9724C57.368 14.9692 59.1138 14.966 60.8595 14.9409L67.0952 14.8546L73.3459 14.7681C79.0425 14.7105 84.7103 14.5089 90.4068 14.2786C92.1239 14.2091 93.8436 14.1475 95.5643 14.0859C99.5522 13.9431 103.546 13.8001 107.525 13.5587C111.071 13.3491 114.61 13.1463 118.146 12.9437L118.147 12.9436C121.897 12.7287 125.644 12.514 129.391 12.2917C131.377 12.1781 133.391 12.1205 135.378 12.0637L135.461 12.0613C135.864 11.6294 136.353 11.2838 136.929 11.1974C137.389 11.1111 137.848 11.0536 138.308 10.996L138.193 10.996C138.352 10.9816 138.503 10.96 138.654 10.9385C138.805 10.9169 138.957 10.8953 139.115 10.8809C138.985 10.8953 138.849 10.9169 138.712 10.9384L138.645 10.949C142.116 10.4746 145.608 10.3313 149.102 10.188C149.551 10.1696 150.001 10.1511 150.451 10.132C159.629 9.41208 168.806 8.66339 177.984 7.8859C183.969 7.39637 189.953 6.93564 195.937 6.5037C201.72 6.07176 207.503 5.75501 213.286 5.46705C219.212 5.1503 225.11 4.91993 231.037 4.71836C232.107 4.68213 233.179 4.64404 234.251 4.60593L234.251 4.60592C239.143 4.432 244.047 4.25763 248.932 4.25763L249.997 4.25763C251.752 4.25763 253.305 5.46705 253.766 7.1948C254.025 8.17386 253.91 9.35449 253.392 10.276C262.483 10.4775 271.575 10.6503 280.666 10.6503L300 10.6503C302.601 10.6503 305.206 10.6253 307.812 10.6003C311.463 10.5653 315.116 10.5303 318.758 10.5639C319.65 10.5639 320.456 10.9671 321.089 11.5142L321.725 11.4168C324.71 10.9595 327.716 10.4988 330.698 9.98799C325.347 9.84402 319.996 9.72883 314.644 9.78642C313.551 10.0456 312.458 9.00894 312.458 7.8571C312.458 6.70527 313.321 6.04297 314.357 5.92779C318.25 5.46233 322.13 4.92931 326.008 4.39681L326.008 4.39675C330.526 3.77625 335.038 3.15645 339.559 2.64506L340.763 2.51288L340.764 2.51276L340.765 2.51271C344.818 2.06752 348.852 1.62448 352.909 1.20527C354.808 1.00371 356.707 0.859734 358.605 0.715761L358.606 0.715744C359.785 0.629356 360.994 0.542969 362.173 0.542969C362.864 0.542969 363.554 0.571765 364.216 0.629356C365.798 0.802131 367.381 1.29166 368.56 2.50108C369.51 3.45135 370.056 4.77595 370.373 6.07176C370.948 8.43302 370.056 11.3702 367.812 12.522L365.827 13.5587C366.604 13.5875 367.352 13.5875 368.129 13.5875C375.12 13.7027 382.111 13.8466 389.131 14.077C390.626 14.1346 392.115 14.1921 393.603 14.2497C395.092 14.3073 396.582 14.3649 398.079 14.4225C398.74 14.4513 399.402 14.4873 400.064 14.5233C400.726 14.5593 401.387 14.5953 402.049 14.6241C402.509 14.6529 402.977 14.6745 403.444 14.6961C403.912 14.7177 404.379 14.7393 404.84 14.7681C406.054 14.8278 407.281 15.0391 408.503 15.2495L408.504 15.2495C409.049 15.3433 409.592 15.4369 410.134 15.5168C411.86 15.776 413.528 17.3885 414.363 18.8571C414.42 18.9433 414.478 19.0582 414.535 19.1731L414.535 19.1739C414.881 19.2027 415.226 19.2602 415.571 19.3178C415.715 19.3466 415.852 19.3826 415.988 19.4186C416.125 19.4546 416.262 19.4906 416.406 19.5194C416.589 19.5921 416.774 19.6623 416.959 19.7324L416.96 19.7329C417.872 20.0794 418.776 20.4232 419.542 21.0456C420.318 21.5063 421.009 22.0822 421.555 22.8021C421.642 22.9033 421.721 22.9971 421.801 23.0911C421.88 23.1843 421.959 23.2776 422.045 23.378C422.965 24.3571 423.627 25.4801 423.972 26.8047C424.346 28.1582 424.346 29.5404 423.972 30.9226C423.282 33.543 421.239 35.5875 418.707 36.3362C418.345 36.4431 417.984 36.5516 417.624 36.6599C415.753 37.222 413.9 37.7788 411.946 38.0927C412.694 38.4383 413.442 38.8702 414.075 39.3021C416.204 40.7419 417.815 42.6136 418.592 45.0901L418.835 45.1411C419.308 45.2399 419.795 45.3417 420.261 45.4644C425.296 46.7027 428.259 52.4906 426.907 57.5011C426.274 59.9487 424.663 62.0796 422.534 63.3466C421.038 64.2105 419.455 64.6712 417.729 64.6712C417.585 64.7 417.412 64.7 417.269 64.7C417.384 65.3047 417.441 65.9095 417.441 66.543L417.441 66.6294C417.643 66.6438 417.837 66.6654 418.031 66.687C418.225 66.7085 418.419 66.7301 418.621 66.7445C420.462 66.9173 422.275 67.0901 424.087 67.3205C424.374 67.3591 424.663 67.3956 424.952 67.4322C426.174 67.5867 427.413 67.7432 428.575 68.0691C429.062 68.2125 429.557 68.3559 430.051 68.4993L430.057 68.5011L430.063 68.5029C430.558 68.6463 431.052 68.7897 431.539 68.933C434.56 69.8257 436.976 72.2445 437.811 75.3833C438.242 76.9959 438.242 78.6372 437.811 80.2786C437.379 81.8336 436.631 83.187 435.509 84.3388C435.106 84.8859 434.761 85.3466 434.243 85.7786C433.524 86.5273 432.69 87.132 431.769 87.5351ZM161.038 31.9304L161.412 31.9304L161.412 31.4121C161.297 31.5849 161.182 31.7576 161.038 31.9304ZM166.044 16.6974C177.035 16.3231 188.054 15.9487 199.073 15.7184L199.073 15.6896C199.591 15.6608 200.109 15.6608 200.627 15.6608L199.764 15.6608L187.594 15.6608C186.895 15.6608 186.192 15.6544 185.489 15.648C184.079 15.6352 182.665 15.6223 181.264 15.6608C179.754 15.704 178.244 15.7399 176.733 15.7759L176.733 15.776C175.222 15.8119 173.712 15.8479 172.201 15.8911C170.72 16.0063 169.238 16.1287 167.756 16.2511C166.275 16.3735 164.793 16.4958 163.311 16.611L163.311 16.7838C164.203 16.755 165.124 16.7262 166.044 16.6974ZM275.105 30.5225C275.542 30.4745 275.977 30.4268 276.408 30.3754L276.379 30.3466C274.509 30.433 272.611 30.5194 270.712 30.6058C271.042 30.6346 271.381 30.6706 271.719 30.7066C272.057 30.7426 272.395 30.7786 272.726 30.8074C273.521 30.6962 274.317 30.6089 275.105 30.5225ZM255.204 91.9409C255.319 91.9121 255.492 91.7969 255.492 91.7969L255.463 91.7969L255.463 91.7969C254.686 91.7681 253.909 91.7393 253.133 91.7393C253.478 91.7681 253.823 91.8041 254.168 91.8401C254.514 91.8761 254.859 91.9121 255.204 91.9409ZM313.436 78.7812C313.321 78.8964 313.033 79.0979 313.033 79.0979C317.579 78.7812 322.125 78.4932 326.699 78.2341L318.845 78.0613C318.322 78.0518 317.795 78.0391 317.268 78.0264C316.2 78.0007 315.128 77.9749 314.069 77.9749C313.867 78.2629 313.666 78.522 313.436 78.7812ZM323.132 26.632C324.023 26.6032 324.944 26.6032 325.865 26.6032C328.512 26.5312 331.166 26.4664 333.82 26.4016C336.474 26.3368 339.128 26.272 341.775 26.2C340.94 26.1424 340.098 26.0848 339.256 26.0272C338.415 25.9696 337.574 25.9121 336.74 25.8545C336.366 25.8257 335.992 25.8041 335.618 25.7825C335.244 25.7609 334.87 25.7393 334.496 25.7105C333.647 25.6817 332.791 25.6601 331.935 25.6385C331.079 25.6169 330.223 25.5953 329.375 25.5665C327.577 25.5085 325.766 25.4244 323.959 25.3406C323.077 25.2996 322.197 25.2588 321.319 25.221L315.45 24.9618C315.438 25.0424 315.436 25.1231 315.434 25.2037C315.43 25.3246 315.427 25.4456 315.392 25.5665C315.277 25.9985 315.076 26.4016 314.817 26.776C317.579 26.7184 320.37 26.6608 323.132 26.632ZM269.237 227.788C267.977 227.6 266.745 227.442 265.484 227.282L265.485 227.253L264.539 227.134L264.74 227.141C265.72 227.118 266.699 227.109 267.678 227.1C268.657 227.091 269.636 227.082 270.616 227.058C270.663 227.06 270.701 227.079 270.736 227.096C270.764 227.109 270.789 227.122 270.815 227.123C271.276 227.262 271.759 227.381 272.228 227.496C272.309 227.516 272.389 227.535 272.469 227.555C272.524 227.762 272.608 227.956 272.69 228.145C272.723 228.222 272.756 228.297 272.786 228.373C271.729 228.18 270.647 228.01 269.584 227.843L269.237 227.788ZM185.426 194.201C185.312 194.168 185.144 194.047 185.144 194.047L185.173 194.048C185.95 194.046 186.727 194.045 187.504 194.072C187.158 194.089 186.811 194.112 186.465 194.136C186.119 194.16 185.772 194.184 185.426 194.201ZM164.609 237.756L163.956 237.794C163.104 237.851 162.261 237.901 161.417 237.95C160.573 238 159.729 238.05 158.878 238.106C158.925 238.054 158.972 238.002 159.019 237.95C159.27 237.673 159.514 237.403 159.72 237.07C159.817 236.909 159.891 236.736 159.964 236.566C160.006 236.468 160.048 236.37 160.093 236.276C161.144 236.284 162.187 236.299 163.23 236.314C164.273 236.329 165.316 236.343 166.367 236.351L185.965 236.518C181.408 236.762 176.851 237.006 172.293 237.279C169.741 237.455 167.164 237.606 164.609 237.756ZM146.156 240.514C145.948 240.709 145.738 240.932 145.557 241.185L145.556 241.214C144.671 241.01 143.813 240.836 142.954 240.69C143.488 240.666 144.022 240.634 144.556 240.602C145.089 240.571 145.623 240.539 146.156 240.514ZM127.689 179.015C127.8 179.134 128.081 179.346 128.081 179.346C123.549 178.87 119.016 178.424 114.453 178.005L122.309 178.106C122.832 178.115 123.358 178.121 123.886 178.127C124.954 178.138 126.026 178.15 127.085 178.187C127.276 178.482 127.468 178.748 127.689 179.015Z" fill="#001928"/>
</mask>
<g mask="url(#mask0_304_5127)">
<g filter="url(#filter1_i_304_5127)">
<rect x="-81" y="1" width="595" height="274" fill="#DED9D6"/>
<rect x="-81" y="1" width="595" height="274" fill="#DED9D6"/>
</g>
</g>
</g>
<defs>
<filter id="filter0_i_304_5127" x="0.441406" y="1" width="440.35" height="274" filterUnits="userSpaceOnUse" color-interpolation-filters="sRGB">
<feFlood flood-opacity="0" result="BackgroundImageFix"/>
<feBlend mode="normal" in="SourceGraphic" in2="BackgroundImageFix" result="shape"/>
<feColorMatrix in="SourceAlpha" type="matrix" values="0 0 0 0 0 0 0 0 0 0 0 0 0 0 0 0 0 0 127 0" result="hardAlpha"/>
<feOffset/>
<feGaussianBlur stdDeviation="3.19401"/>
<feComposite in2="hardAlpha" operator="arithmetic" k2="-1" k3="1"/>
<feColorMatrix type="matrix" values="0 0 0 0 0 0 0 0 0 0 0 0 0 0 0 0 0 0 0.25 0"/>
<feBlend mode="normal" in2="shape" result="effect1_innerShadow_304_5127"/>
</filter>
<filter id="filter1_i_304_5127" x="-81" y="1" width="595" height="274" filterUnits="userSpaceOnUse" color-interpolation-filters="sRGB">
<feFlood flood-opacity="0" result="BackgroundImageFix"/>
<feBlend mode="normal" in="SourceGraphic" in2="BackgroundImageFix" result="shape"/>
<feColorMatrix in="SourceAlpha" type="matrix" values="0 0 0 0 0 0 0 0 0 0 0 0 0 0 0 0 0 0 127 0" result="hardAlpha"/>
<feOffset/>
<feGaussianBlur stdDeviation="3.13013"/>
<feComposite in2="hardAlpha" operator="arithmetic" k2="-1" k3="1"/>
<feColorMatrix type="matrix" values="0 0 0 0 0 0 0 0 0 0 0 0 0 0 0 0 0 0 0.25 0"/>
<feBlend mode="normal" in2="shape" result="effect1_innerShadow_304_5127"/>
</filter>
</defs>
</svg>
