<svg width="308" height="191" viewBox="0 0 308 191" fill="none" xmlns="http://www.w3.org/2000/svg">
<g filter="url(#filter0_i_300_4285)">
<mask id="mask0_300_4285" style="mask-type:alpha" maskUnits="userSpaceOnUse" x="0" y="0" width="308" height="192">
<path fill-rule="evenodd" clip-rule="evenodd" d="M301.075 60.5165C300.052 61.0173 299.069 61.3779 297.966 61.5782L298.066 61.5982C296.943 61.7985 295.78 61.9388 294.636 61.9588C294.227 61.9829 293.81 61.9852 293.39 61.9876C293.111 61.9893 292.831 61.9909 292.55 61.9989C293.473 62.6199 294.295 63.5013 294.797 64.4027C295.679 65.9652 295.94 67.8883 295.459 69.631C294.777 72.135 292.731 73.998 290.284 74.4788C290.304 74.6591 290.304 74.8594 290.304 75.0397C290.304 76.2416 289.963 77.4235 289.361 78.4451C290.665 78.4651 291.948 78.4852 293.232 78.5252C293.579 78.5314 293.927 78.5338 294.277 78.5361C296.197 78.5492 298.153 78.5625 299.952 79.2063C301.476 79.7472 302.72 80.5885 303.562 82.0508C304.364 83.4731 304.605 85.2159 304.164 86.8184C303.442 89.4827 301.015 91.3657 298.327 91.3657C293.61 91.3857 288.914 91.2664 284.197 91.1466L284.146 91.1453C284.126 91.3256 284.086 91.5059 284.046 91.6862C284.306 91.7663 284.567 91.8465 284.848 91.9266C286.352 92.3873 287.636 93.3489 288.438 94.7511C289.048 95.8312 289.321 97.0961 289.233 98.3353C289.395 98.6517 289.519 98.9673 289.604 99.3005C290.159 99.5202 290.669 99.8587 291.112 100.375C291.924 101.266 292.364 102.463 292.321 103.685C292.296 104.405 292.11 105.12 291.768 105.73C293.395 105.686 295.022 105.643 296.626 105.699C298.47 105.763 299.959 107.399 299.892 109.301C299.86 110.221 299.468 111.09 298.804 111.728C298.327 112.172 297.836 112.416 297.27 112.536L297.269 112.576C296.016 112.772 294.742 112.865 293.472 112.958C293.146 112.982 292.821 113.006 292.496 113.031C291.894 113.076 291.291 113.128 290.688 113.179C289.457 113.284 288.224 113.389 286.983 113.44C286.249 113.475 285.515 113.504 284.782 113.534C284.048 113.563 283.314 113.593 282.581 113.628C280.83 113.747 279.08 113.866 277.31 113.985L278.352 114.021C278.499 114.024 278.646 114.027 278.793 114.03C280.133 114.057 281.485 114.084 282.799 114.257C284.438 114.454 285.993 114.749 287.582 115.245C289.825 115.945 291.372 118.204 291.288 120.606C291.279 120.866 291.249 121.146 291.2 121.405L294.648 121.525L298.136 121.647C299.486 121.694 300.833 121.845 302.18 121.996C302.792 122.065 303.405 122.134 304.017 122.192C305.577 122.347 306.908 123.316 307.273 124.932C307.411 125.578 307.39 126.199 307.207 126.834C307.025 127.429 306.707 127.939 306.249 128.384C305.391 129.396 303.993 129.788 302.727 129.824L301.745 129.79C301.344 129.776 300.943 129.762 300.521 129.788C299.974 129.816 299.427 129.85 298.878 129.883C298.276 129.92 297.671 129.956 297.061 129.988C295.312 130.087 293.562 130.186 291.793 130.265C291.27 130.287 290.747 130.314 290.225 130.34C289.702 130.367 289.179 130.394 288.657 130.416C288.983 131.991 288.252 133.97 286.743 134.639C286.633 134.688 286.523 134.737 286.413 134.787C285.641 135.137 284.849 135.495 284.02 135.606C283.234 135.711 282.439 135.784 281.648 135.856C281.364 135.882 281.08 135.907 280.797 135.935C280.335 135.984 279.864 136.016 279.396 136.048C279.151 136.065 278.906 136.082 278.664 136.101C278.171 136.135 277.676 136.177 277.178 136.219C276.315 136.292 275.446 136.366 274.579 136.399C273.442 136.445 272.305 136.503 271.168 136.56C269.651 136.636 268.134 136.713 266.619 136.763C262.66 136.886 258.723 136.989 254.766 137.091L260.234 137.402C260.532 137.421 260.828 137.44 261.125 137.459C262.284 137.535 263.435 137.61 264.601 137.635C269.553 137.787 274.526 137.921 279.499 138.054C280.651 138.094 281.805 138.095 282.959 138.097C283.652 138.097 284.344 138.098 285.036 138.107L285.158 138.108C288.087 138.131 291.036 138.154 293.967 138.138C295.132 138.098 296.353 138.762 297.126 139.611C297.938 140.501 298.377 141.719 298.335 142.94C298.292 144.162 297.769 145.346 296.897 146.178C296.565 146.487 296.194 146.754 295.806 146.961C296.072 147.391 296.256 147.859 296.378 148.384C296.866 150.506 295.884 152.757 294.001 153.794C293.974 153.793 293.956 153.81 293.935 153.827C293.924 153.835 293.912 153.844 293.899 153.85C294.079 154.438 294.178 155.062 294.155 155.703C294.104 157.185 293.473 158.586 292.413 159.611C292.267 159.766 292.102 159.901 291.937 160.015C292.628 160.34 293.277 160.724 293.798 161.343C294.221 161.859 294.623 162.414 294.944 163.007C295.945 164.785 295.802 167.146 294.739 168.852C294.208 169.696 293.502 170.373 292.642 170.864C292.471 170.931 292.303 170.996 292.137 171.06C291.847 171.171 291.563 171.28 291.278 171.398C288.82 171.673 286.364 171.888 283.891 172.022C283.167 172.057 282.463 172.092 281.74 172.127C280.929 172.921 279.829 173.383 278.646 173.362C277.923 173.371 277.195 173.354 276.468 173.337C275.922 173.324 275.376 173.311 274.834 173.309C274.493 173.311 274.152 173.315 273.811 173.318C273.128 173.326 272.445 173.333 271.763 173.323C271.342 173.308 270.921 173.293 270.499 173.299C269.428 173.281 268.357 173.268 267.283 173.256C266.185 173.243 265.085 173.23 263.98 173.211C261.35 173.179 258.72 173.127 256.11 173.076L255.996 173.073L255.995 173.073C255.354 173.051 254.713 173.029 254.091 173.027C250.4 172.978 246.688 172.949 242.996 172.921C243.579 172.981 244.168 173.042 244.756 173.103C245.337 173.163 245.919 173.223 246.496 173.283C247.016 173.341 247.535 173.4 248.056 173.438C248.646 173.478 249.242 173.514 249.838 173.55C250.434 173.586 251.03 173.622 251.62 173.662C252.872 173.746 254.131 173.849 255.388 173.951C256.001 174.001 256.614 174.051 257.225 174.098L261.428 174.425C262.329 174.497 263.248 174.629 264.145 174.781C267.227 175.049 270.308 175.336 273.386 175.704C274.508 175.743 275.523 176.561 275.803 177.733C275.96 178.42 275.834 179.157 275.471 179.766C275.153 180.276 274.51 180.855 273.886 180.913C273.476 180.956 273.067 181.002 272.658 181.048C271.341 181.196 270.03 181.344 268.712 181.374C268.421 181.645 268.091 181.894 267.762 182.123C267.314 182.308 266.887 182.473 266.44 182.638C265.654 182.731 264.889 182.784 264.105 182.837C262.253 183.063 260.398 183.276 258.543 183.489C255.794 183.805 253.044 184.121 250.299 184.48C254.024 184.71 257.75 184.92 261.48 185.01C262.247 184.877 262.983 185.644 262.956 186.405C262.93 187.166 262.311 187.645 261.586 187.7C258.905 187.927 256.226 188.199 253.545 188.472C250.35 188.797 247.153 189.122 243.946 189.37C243.126 189.431 242.306 189.493 241.488 189.556C239.195 189.731 236.907 189.905 234.61 190.046C233.614 190.117 232.62 190.154 231.625 190.19C231.293 190.203 230.962 190.215 230.63 190.228C229.826 190.26 228.982 190.291 228.14 190.262C227.659 190.245 227.178 190.228 226.719 190.152C225.62 189.993 224.51 189.614 223.737 188.745C223.099 188.061 222.75 187.127 222.561 186.219C222.218 184.563 222.911 182.523 224.502 181.796L225.91 181.124C225.369 181.105 224.848 181.087 224.307 181.048C219.419 180.797 214.552 180.507 209.686 180.197C207.603 180.064 205.541 179.912 203.46 179.74C202.539 179.667 201.618 179.595 200.698 179.503C200.376 179.472 200.058 179.446 199.743 179.421C199.413 179.394 199.085 179.367 198.758 179.335C197.786 179.253 196.793 179.044 195.826 178.84C195.578 178.787 195.331 178.735 195.087 178.686C193.911 178.464 192.767 177.302 192.222 176.261C192.184 176.179 192.146 176.118 192.109 176.036C191.87 175.988 191.631 175.939 191.391 175.911C191.291 175.888 191.197 175.859 191.103 175.831C191.008 175.803 190.914 175.774 190.815 175.751C190.732 175.713 190.649 175.676 190.566 175.639C189.974 175.374 189.378 175.108 188.864 174.72C187.173 174.842 185.483 174.963 183.792 175.105C179.667 175.422 175.562 175.72 171.437 176.017C170.773 176.064 170.104 176.116 169.435 176.167C168.766 176.219 168.097 176.271 167.433 176.318C167.773 176.34 168.118 176.367 168.464 176.394C168.809 176.421 169.154 176.448 169.495 176.47C169.833 176.492 170.171 176.52 170.506 176.547C170.826 176.573 171.144 176.598 171.456 176.619C172.377 176.691 173.315 176.844 174.187 177.155C175.178 177.51 175.979 178.14 176.633 178.964C177.154 179.544 177.512 180.218 177.705 181.006C177.878 181.814 177.85 182.615 177.622 183.408C177.374 184.161 176.99 184.83 176.409 185.37C175.828 185.911 175.173 186.269 174.424 186.464C171.663 186.788 168.925 187.034 166.132 187.117C164.786 187.15 163.44 187.183 162.094 187.236L154.076 187.498C151.207 187.585 148.346 187.724 145.488 187.862C144.364 187.917 143.24 187.971 142.116 188.023C139.557 188.133 137.005 188.296 134.451 188.46C133.152 188.543 131.853 188.626 130.552 188.702C126.872 188.914 123.169 189.206 119.485 189.518C116.407 189.772 113.329 190.045 110.251 190.318L110.245 190.319L110.005 190.341C108.677 190.465 107.366 190.587 106.037 190.673C105.052 190.739 104.086 190.805 103.1 190.891C102.677 190.917 102.296 190.923 101.874 190.929C101.451 190.914 101.046 190.937 100.623 190.96L100.568 190.963C100.424 190.958 100.288 190.971 100.149 190.983C100.075 190.99 100.001 190.997 99.9246 191.001C99.5257 190.927 99.1262 190.873 98.7453 190.86C97.3048 190.729 96.025 190.023 95.3295 188.676C94.464 187.022 94.7974 184.949 96.1466 183.673C96.7074 183.132 97.3242 182.712 97.9811 182.294C98.6021 181.899 99.4664 181.727 100.208 181.58C100.251 181.571 100.293 181.563 100.335 181.554C99.8247 180.655 99.5604 179.603 99.5947 178.622C99.6276 177.681 99.8989 176.809 100.389 176.004C100.495 175.827 100.621 175.671 100.747 175.516C100.667 175.513 100.606 175.531 100.525 175.548C97.5438 175.671 94.5704 175.573 91.5969 175.475C90.3805 175.435 89.1641 175.395 87.9471 175.37L79.243 175.186C75.3064 175.109 71.3868 175.11 67.4478 175.112L67.3439 175.112C66.1994 175.118 65.0534 175.121 63.9066 175.124C61.0708 175.131 58.2308 175.138 55.3991 175.197C50.3169 175.32 45.2348 175.443 40.1334 175.546C38.3656 175.591 36.6004 175.565 34.8352 175.539C33.9525 175.526 33.0698 175.513 32.1868 175.509C31.4544 175.504 30.7219 175.503 29.9893 175.503C29.2568 175.502 28.5242 175.502 27.7918 175.496C27.1504 175.474 26.5089 175.452 25.8688 175.389L19.7411 174.995C18.2791 174.904 17.0097 173.898 16.6599 172.422C16.4494 171.553 16.6033 170.596 17.091 169.852C17.304 169.498 17.6381 169.129 18.0087 168.861C17.5693 168.225 17.253 167.512 17.0792 166.744C16.7135 165.148 16.9949 163.414 17.8464 162.021C18.6973 160.647 20.0138 159.731 21.5333 159.323C21.8168 159.253 22.0802 159.182 22.3436 159.111L22.3436 159.11C22.3098 158.929 22.276 158.747 22.2623 158.567L22.2123 158.566C17.494 158.521 12.7956 158.477 8.08208 158.293C5.39592 158.199 3.03618 156.232 2.40762 153.545C2.0226 151.928 2.32405 150.194 3.17558 148.801C4.06861 147.369 5.34083 146.571 6.88321 146.084C8.70298 145.503 10.6585 145.558 12.5776 145.612C12.9274 145.622 13.276 145.632 13.6224 145.637C14.9067 145.642 16.1904 145.667 17.4941 145.692C16.9284 144.65 16.6289 143.457 16.6709 142.256C16.6772 142.076 16.6842 141.876 16.7105 141.696C14.2817 141.131 12.3021 139.197 11.7081 136.671C11.2879 134.913 11.6157 133 12.5523 131.469C13.0849 130.586 13.9376 129.733 14.8814 129.145C14.6014 129.127 14.3211 129.116 14.0421 129.104C13.6228 129.087 13.2064 129.071 12.798 129.032C11.6561 128.972 10.4983 128.792 9.38277 128.552L9.4837 128.536C8.38818 128.297 7.41852 127.903 6.41368 127.366C5.782 127.064 5.21537 126.623 4.73242 126.085C4.38209 125.772 4.15273 125.443 3.88539 125.053C3.1316 124.225 2.64332 123.266 2.38043 122.175C2.11964 121.023 2.15953 119.882 2.49942 118.771C3.15704 116.609 4.89968 114.986 7.0262 114.439C7.37025 114.351 7.7193 114.263 8.06836 114.175C8.41789 114.087 8.76741 113.999 9.11192 113.911C9.93013 113.712 10.7966 113.634 11.6519 113.556C11.8546 113.537 12.0566 113.519 12.2573 113.499C13.5258 113.383 14.7929 113.307 16.08 113.232C16.2207 113.227 16.3565 113.216 16.4924 113.206C16.6282 113.196 16.764 113.185 16.9047 113.18L16.9068 113.12C16.9222 112.68 16.977 112.261 17.0719 111.843C16.9716 111.84 16.8514 111.835 16.7518 111.812C15.5491 111.77 14.4578 111.411 13.4364 110.774C11.9838 109.842 10.913 108.321 10.5315 106.604C9.71109 103.088 11.9165 99.1357 15.4546 98.3972C15.7825 98.3231 16.1244 98.2642 16.456 98.207C16.5131 98.1971 16.57 98.1873 16.6264 98.1775C17.0638 96.9391 17.8009 95.9338 18.7545 95.1124C17.4494 94.9575 16.1473 94.7827 14.8453 94.5908C14.5653 94.4638 14.2854 94.3448 14.0004 94.2236L13.9996 94.2233L13.9992 94.2231L13.998 94.2226C13.8344 94.153 13.6692 94.0828 13.5014 94.0099C12.6589 93.4891 11.9769 92.788 11.4755 91.9266C10.4726 90.1838 10.4124 87.82 11.4755 86.0773C11.8165 85.4963 12.2377 84.9555 12.679 84.4547C13.2104 83.865 13.8576 83.5068 14.5449 83.2097C14.5534 83.2005 14.5619 83.1913 14.5705 83.1821C14.4147 83.0643 14.2595 82.9276 14.1232 82.772C13.1002 81.7103 12.5185 80.288 12.5185 78.8057C12.5185 78.1646 12.6389 77.5437 12.8394 76.9627C12.8236 76.9548 12.8109 76.9438 12.7989 76.9334C12.7804 76.9173 12.7634 76.9026 12.7392 76.9026C10.8938 75.8009 9.99119 73.5172 10.5528 71.4139C10.6932 70.8931 10.8938 70.4323 11.1746 70.0116C10.7935 69.7913 10.4325 69.5108 10.1115 69.1903C9.2691 68.329 8.7877 67.127 8.7877 65.9051C8.7877 64.6832 9.2691 63.4812 10.1115 62.6199C10.9139 61.7985 12.1575 61.1776 13.3208 61.2577C16.2504 61.3763 19.1995 61.4559 22.1295 61.535L22.2467 61.5381C22.9387 61.5532 23.6307 61.5766 24.3227 61.6001C25.476 61.6392 26.6294 61.6784 27.7828 61.6784L27.7856 61.6784C32.7591 61.7184 37.7325 61.7585 42.686 61.7785C43.8521 61.7945 45.0055 61.7596 46.1665 61.7245C46.4633 61.7155 46.7605 61.7065 47.0586 61.6984L52.5345 61.5782C48.583 61.3378 44.6516 61.0974 40.7002 60.837C39.1872 60.734 37.6742 60.6048 36.1612 60.4756L36.1611 60.4756L36.161 60.4756C35.0264 60.3787 33.8918 60.2818 32.7572 60.196C31.8917 60.1324 31.0262 60.0285 30.1658 59.9253L30.1655 59.9252C29.6701 59.8658 29.1764 59.8065 28.6854 59.7553C28.4441 59.7278 28.2006 59.7026 27.9562 59.6773L27.9552 59.6772C27.4888 59.6291 27.0197 59.5806 26.5592 59.5149C26.2778 59.4778 25.995 59.4421 25.7115 59.4063L25.7113 59.4062L25.7111 59.4062C24.9238 59.3068 24.1314 59.2067 23.3499 59.0742C22.5253 58.934 21.7467 58.5486 20.9873 58.1727L20.9869 58.1725C20.8783 58.1187 20.77 58.0651 20.6621 58.0125C19.1778 57.2914 18.5159 55.2882 18.897 53.7257C18.3755 53.6856 17.854 53.6405 17.3325 53.5955C16.811 53.5504 16.2894 53.5053 15.7679 53.4653C14.0031 53.3251 12.2584 53.1648 10.5136 53.0046L10.5127 53.0045C9.90449 52.9522 9.30176 52.8943 8.70166 52.8367L8.70146 52.8367L8.70124 52.8367L8.70017 52.8366C8.1529 52.7841 7.6078 52.7318 7.0627 52.684C6.64152 52.6439 6.24039 52.6439 5.83927 52.6439L5.83915 52.6439L4.8563 52.6439C3.59264 52.5638 2.20863 52.1231 1.38625 51.0815C0.944967 50.6207 0.644095 50.0999 0.48363 49.4989C0.323165 48.8579 0.323165 48.2369 0.48363 47.5959C0.904851 45.9933 2.2688 45.0719 3.83334 44.9717C4.44762 44.9342 5.0619 44.8868 5.67619 44.8395C7.0276 44.7353 8.37902 44.6312 9.73043 44.6312L13.2205 44.6312L16.6705 44.6312C16.6304 44.3708 16.6104 44.0903 16.6104 43.8299C16.6104 41.4261 18.2351 39.2225 20.5017 38.6016C22.1063 38.1609 23.6708 37.9205 25.3156 37.7802C26.6349 37.6539 27.9868 37.6739 29.3272 37.6938L29.3273 37.6938L29.3274 37.6938C29.4746 37.696 29.6216 37.6981 29.7685 37.7001L30.8115 37.7001C29.0464 37.5198 27.3014 37.3395 25.5563 37.1593C24.8242 37.0992 24.0921 37.0441 23.3599 36.989C22.6278 36.9339 21.8957 36.8788 21.1636 36.8187C19.9252 36.7246 18.6959 36.5764 17.4695 36.4285C16.8684 36.356 16.268 36.2836 15.6676 36.2178C15.344 36.1809 15.0196 36.1458 14.6948 36.1106L14.6947 36.1106C13.4292 35.9735 12.1589 35.8359 10.9139 35.5968L10.9139 35.5567C10.3522 35.4165 9.87084 35.1561 9.4095 34.6953C8.76764 34.0343 8.4066 33.1529 8.4066 32.2314C8.4066 30.3284 9.95107 28.7458 11.7964 28.7458C13.401 28.7458 15.0257 28.846 16.6504 28.9462L16.6505 28.9462C16.3296 28.3252 16.1691 27.604 16.1691 26.8829C16.1691 25.6609 16.6505 24.479 17.4929 23.6177C17.9543 23.1169 18.4758 22.7964 19.0374 22.596C19.1377 22.2555 19.2781 21.935 19.4586 21.6145C19.8397 20.9334 20.3813 20.3925 21.0432 19.9919C21.7252 19.5712 22.4673 19.3709 23.2697 19.3709C25.8572 19.1105 28.4446 18.9102 31.0321 18.7098L31.0321 18.7098L31.0322 18.7098L31.0322 18.7098C30.3101 18.6097 29.5679 18.4895 28.8458 18.3493C28.1438 18.1489 27.5621 17.8084 27.0607 17.2876C26.2985 16.5264 25.8772 15.4647 25.8772 14.3829C25.8772 13.3012 26.3185 12.2395 27.0607 11.4783C27.863 10.677 28.8057 10.3565 29.9089 10.2764C32.884 10.0489 35.8591 10.0434 38.8341 10.0379C40.0512 10.0357 41.2683 10.0334 42.4854 10.016L51.1906 9.89578C55.1621 9.85571 59.1136 9.71549 63.0851 9.55524C64.2822 9.50693 65.4811 9.46409 66.6807 9.42122C69.4611 9.32186 72.2453 9.22237 75.0197 9.05444C77.4921 8.90862 79.9597 8.76752 82.4249 8.62656L82.4253 8.62654L82.4256 8.62652C85.0402 8.47703 87.652 8.32768 90.2639 8.17303C91.6484 8.09402 93.0525 8.05396 94.4376 8.01445L94.4961 8.01278C94.7769 7.7123 95.1179 7.47191 95.5191 7.41182C95.8375 7.35219 96.156 7.31228 96.4745 7.27252L96.4023 7.27252C96.5129 7.2625 96.6185 7.24748 96.724 7.23245C96.8295 7.21743 96.9351 7.2024 97.0456 7.19238C96.956 7.20231 96.8615 7.21715 96.7668 7.23204C99.1699 6.90755 101.587 6.80862 104.006 6.70962L104.006 6.7096C104.32 6.69678 104.633 6.68395 104.946 6.67064C111.345 6.16984 117.744 5.64901 124.142 5.10815C128.314 4.7676 132.486 4.44709 136.658 4.14661C140.69 3.84613 144.722 3.62578 148.753 3.42546C152.885 3.20511 156.997 3.04486 161.129 2.90463C161.876 2.87943 162.623 2.85293 163.37 2.82641C166.781 2.70542 170.2 2.58412 173.605 2.58412L174.348 2.58412C175.571 2.58412 176.654 3.42546 176.975 4.62738C177.156 5.30846 177.075 6.12977 176.714 6.7708C183.053 6.91102 189.391 7.03121 195.73 7.03121L209.209 7.03121C211.022 7.03121 212.838 7.01383 214.655 6.99645C217.201 6.9721 219.747 6.94774 222.287 6.97112C222.908 6.97112 223.47 7.25156 223.911 7.63217L224.355 7.56438L224.355 7.56429L224.356 7.56424C226.436 7.24617 228.532 6.92578 230.611 6.57048C226.88 6.47032 223.149 6.39019 219.418 6.43025C218.656 6.61054 217.894 5.88939 217.894 5.08811C217.894 4.28684 218.496 3.8261 219.218 3.74597C221.932 3.42217 224.638 3.05137 227.341 2.68093L227.341 2.68091C230.49 2.24925 233.637 1.81808 236.789 1.46233L237.627 1.37044C240.454 1.06068 243.266 0.752412 246.096 0.460735C247.419 0.320515 248.743 0.220357 250.067 0.1202L250.067 0.120192C250.889 0.0600958 251.732 4.68994e-07 252.554 4.70528e-07C253.036 4.71426e-07 253.517 0.0200319 253.978 0.0600958C255.082 0.180287 256.185 0.520831 257.007 1.36217C257.669 2.02323 258.05 2.9447 258.271 3.84613C258.672 5.48875 258.05 7.53201 256.486 8.33329L255.102 9.05444C255.643 9.07447 256.165 9.07447 256.706 9.07447C261.58 9.1546 266.455 9.25476 271.349 9.41501C272.392 9.45508 273.43 9.49514 274.468 9.5352C275.506 9.57527 276.544 9.61533 277.587 9.6554C278.048 9.67543 278.509 9.70047 278.971 9.72551L278.971 9.72552C279.432 9.75056 279.894 9.77559 280.355 9.79562C280.676 9.81565 281.002 9.83068 281.328 9.8457L281.328 9.84571C281.654 9.86073 281.98 9.87575 282.3 9.89578C283.147 9.93734 284.003 10.0843 284.855 10.2306C285.235 10.2959 285.614 10.361 285.991 10.4166C287.195 10.5969 288.358 11.7187 288.94 12.7403C288.98 12.8002 289.02 12.88 289.06 12.9599L289.06 12.9607C289.301 12.9807 289.541 13.0208 289.782 13.0608C289.882 13.0809 289.978 13.1059 290.073 13.1309C290.168 13.156 290.264 13.181 290.364 13.2011C290.492 13.2517 290.622 13.3007 290.75 13.3496C291.386 13.5906 292.017 13.8298 292.55 14.2627C293.092 14.5833 293.573 14.9839 293.954 15.4847C294.013 15.5526 294.066 15.6158 294.12 15.6789L294.124 15.684L294.171 15.7393C294.211 15.7866 294.252 15.8347 294.295 15.8853C294.937 16.5664 295.398 17.3477 295.639 18.2691C295.9 19.2106 295.9 20.1722 295.639 21.1337C295.158 22.9566 293.734 24.3789 291.968 24.8997C291.716 24.9741 291.464 25.0496 291.213 25.1249C289.909 25.516 288.617 25.9033 287.255 26.1217C287.776 26.362 288.298 26.6625 288.739 26.963C290.223 27.9646 291.347 29.2667 291.888 30.9894L292.058 31.0249L292.058 31.025C292.387 31.0937 292.727 31.1645 293.052 31.2498C296.562 32.1112 298.628 36.1376 297.685 39.6232C297.244 41.3259 296.121 42.8083 294.636 43.6897C293.593 44.2906 292.49 44.6111 291.286 44.6111C291.186 44.6312 291.066 44.6312 290.966 44.6312C291.046 45.0518 291.086 45.4725 291.086 45.9132L291.086 45.9733C291.226 45.9833 291.362 45.9984 291.497 46.0134C291.633 46.0284 291.768 46.0434 291.908 46.0534C293.192 46.1736 294.456 46.2938 295.719 46.4541C295.919 46.4809 296.12 46.5062 296.321 46.5317L296.322 46.5318C297.174 46.6393 298.038 46.7482 298.848 46.9749C299.189 47.0751 299.535 47.1752 299.881 47.2754C300.227 47.3755 300.573 47.4757 300.914 47.5759C303.021 48.1969 304.705 49.8795 305.287 52.063C305.588 53.1848 305.588 54.3266 305.287 55.4685C304.986 56.5502 304.465 57.4917 303.682 58.293C303.402 58.6736 303.161 58.9941 302.8 59.2946C302.298 59.8154 301.717 60.2361 301.075 60.5165ZM112.328 21.8348L112.589 21.8348L112.589 21.4742L112.588 21.4744C112.508 21.5945 112.428 21.7147 112.328 21.8348ZM115.818 11.2379C123.48 10.9775 131.162 10.7171 138.845 10.5568L138.845 10.5368C139.206 10.5168 139.567 10.5168 139.928 10.5168L139.326 10.5168L130.841 10.5168C130.354 10.5168 129.865 10.5123 129.374 10.5079C128.391 10.499 127.406 10.49 126.429 10.5168C125.376 10.5468 124.323 10.5718 123.27 10.5969L123.27 10.5969L123.27 10.5969L123.269 10.5969L123.269 10.5969C122.216 10.622 121.163 10.647 120.11 10.677C119.077 10.7572 118.044 10.8423 117.011 10.9274C115.978 11.0126 114.945 11.0977 113.912 11.1778L113.912 11.298C114.534 11.278 115.176 11.258 115.818 11.2379ZM191.852 20.8554C192.157 20.822 192.46 20.7888 192.761 20.7531L192.741 20.7331C191.437 20.7932 190.113 20.8533 188.789 20.9133C189.02 20.9334 189.256 20.9584 189.491 20.9835L189.492 20.9835L189.492 20.9835C189.728 21.0085 189.963 21.0336 190.194 21.0536C190.748 20.9763 191.303 20.9155 191.852 20.8554ZM177.978 63.5814C178.058 63.5614 178.179 63.4812 178.179 63.4812L178.159 63.4812C177.617 63.4612 177.075 63.4412 176.534 63.4412C176.775 63.4612 177.015 63.4862 177.256 63.5113C177.497 63.5363 177.737 63.5614 177.978 63.5814ZM218.576 54.4268C218.496 54.5069 218.295 54.6471 218.295 54.6471C221.464 54.4268 224.633 54.2265 227.823 54.0462L222.347 53.926C221.982 53.9194 221.616 53.9106 221.248 53.9018L221.247 53.9017L221.247 53.9017C220.503 53.8838 219.755 53.8659 219.017 53.8659C218.877 54.0662 218.736 54.2465 218.576 54.4268ZM225.335 18.1489C225.957 18.1289 226.599 18.1289 227.241 18.1289C229.086 18.0788 230.937 18.0338 232.787 17.9887L232.789 17.9886C234.639 17.9436 236.488 17.8985 238.333 17.8485C237.751 17.8084 237.165 17.7683 236.578 17.7283C235.991 17.6882 235.405 17.6481 234.823 17.6081C234.562 17.588 234.301 17.573 234.041 17.558C233.78 17.543 233.519 17.528 233.258 17.5079C232.667 17.4879 232.07 17.4729 231.473 17.4578C230.876 17.4428 230.28 17.4278 229.688 17.4078C228.435 17.3674 227.172 17.3089 225.913 17.2506L225.913 17.2506L225.912 17.2506C225.298 17.2221 224.684 17.1937 224.072 17.1674L219.98 16.9871C219.972 17.0432 219.97 17.0992 219.969 17.1553C219.966 17.2395 219.964 17.3236 219.94 17.4078C219.859 17.7082 219.719 17.9887 219.539 18.2491C221.464 18.209 223.41 18.169 225.335 18.1489ZM187.759 158.085C186.881 157.955 186.022 157.844 185.142 157.734L185.143 157.714L184.484 157.63L184.624 157.635C185.307 157.619 185.99 157.613 186.672 157.607C187.355 157.6 188.037 157.594 188.72 157.578C188.753 157.579 188.78 157.592 188.804 157.604C188.823 157.613 188.841 157.622 188.859 157.623C189.181 157.719 189.518 157.802 189.845 157.882C189.901 157.896 189.957 157.91 190.013 157.923C190.051 158.068 190.109 158.202 190.166 158.334C190.19 158.387 190.213 158.44 190.234 158.492C189.496 158.358 188.741 158.24 188 158.123L187.759 158.085ZM129.328 134.72C129.249 134.698 129.131 134.613 129.131 134.613L129.151 134.614C129.693 134.613 130.235 134.612 130.777 134.631C130.535 134.642 130.294 134.659 130.053 134.675C129.811 134.692 129.57 134.709 129.328 134.72ZM114.817 165.019L114.359 165.046C113.766 165.086 113.178 165.12 112.589 165.155C112.001 165.189 111.413 165.224 110.819 165.263C110.852 165.227 110.885 165.191 110.918 165.155C111.093 164.962 111.263 164.774 111.407 164.542C111.474 164.431 111.526 164.31 111.576 164.192C111.606 164.123 111.635 164.055 111.667 163.99C112.399 163.996 113.126 164.006 113.854 164.016C114.581 164.027 115.308 164.037 116.04 164.042L129.704 164.158C126.527 164.328 123.35 164.498 120.172 164.688C118.393 164.81 116.598 164.915 114.817 165.019ZM101.95 166.938C101.805 167.074 101.659 167.229 101.532 167.405L101.532 167.425C100.914 167.283 100.316 167.162 99.7179 167.061C100.09 167.044 100.462 167.022 100.833 167C101.206 166.978 101.578 166.956 101.95 166.938ZM89.0753 124.156C89.1527 124.239 89.3483 124.386 89.3483 124.386C86.1887 124.055 83.0285 123.745 79.8475 123.453L85.3242 123.524C85.6889 123.53 86.0558 123.534 86.4235 123.538C87.1682 123.546 87.9158 123.554 88.6539 123.58C88.7872 123.785 88.9213 123.97 89.0753 124.156Z" fill="#001928"/>
</mask>
<g mask="url(#mask0_300_4285)">
<g filter="url(#filter1_i_300_4285)">
<rect x="-0.00585938" y="-0.733398" width="308" height="192" fill="#DED9D6"/>
</g>
</g>
</g>
<defs>
<filter id="filter0_i_300_4285" x="0.363281" y="0" width="307" height="191.001" filterUnits="userSpaceOnUse" color-interpolation-filters="sRGB">
<feFlood flood-opacity="0" result="BackgroundImageFix"/>
<feBlend mode="normal" in="SourceGraphic" in2="BackgroundImageFix" result="shape"/>
<feColorMatrix in="SourceAlpha" type="matrix" values="0 0 0 0 0 0 0 0 0 0 0 0 0 0 0 0 0 0 127 0" result="hardAlpha"/>
<feOffset/>
<feGaussianBlur stdDeviation="2.22222"/>
<feComposite in2="hardAlpha" operator="arithmetic" k2="-1" k3="1"/>
<feColorMatrix type="matrix" values="0 0 0 0 0 0 0 0 0 0 0 0 0 0 0 0 0 0 0.25 0"/>
<feBlend mode="normal" in2="shape" result="effect1_innerShadow_300_4285"/>
</filter>
<filter id="filter1_i_300_4285" x="-0.00585938" y="-0.733398" width="308" height="192" filterUnits="userSpaceOnUse" color-interpolation-filters="sRGB">
<feFlood flood-opacity="0" result="BackgroundImageFix"/>
<feBlend mode="normal" in="SourceGraphic" in2="BackgroundImageFix" result="shape"/>
<feColorMatrix in="SourceAlpha" type="matrix" values="0 0 0 0 0 0 0 0 0 0 0 0 0 0 0 0 0 0 127 0" result="hardAlpha"/>
<feOffset/>
<feGaussianBlur stdDeviation="2.17778"/>
<feComposite in2="hardAlpha" operator="arithmetic" k2="-1" k3="1"/>
<feColorMatrix type="matrix" values="0 0 0 0 0 0 0 0 0 0 0 0 0 0 0 0 0 0 0.25 0"/>
<feBlend mode="normal" in2="shape" result="effect1_innerShadow_300_4285"/>
</filter>
</defs>
</svg>
