<svg width="81" height="28" viewBox="0 0 81 28" fill="none" xmlns="http://www.w3.org/2000/svg">
<path d="M13.6815 0.980469L18 4.49995L6.5 15L74.5016 12.5885C76.1281 12.5309 77.698 11.9765 79 10.9999H80L81 17H6.5C8.29124 18.4927 11.4653 21.884 15.5198 23.7467C16.7907 24.3306 18.3366 24.9339 18.4631 26.3268C18.4664 26.363 18.4689 26.3982 18.4707 26.4324C18.4907 26.811 18.2617 27.1382 17.9487 27.352C17.3887 27.7345 16.6419 27.6945 16.126 27.2544L0 13.5L12.8894 3.13677C13.3776 2.7443 13.6118 2.11622 13.5 1.49994L13.6815 0.980469Z" fill="#293037"/>
<path d="M26 18L72.3524 18C73.392 18 73.6285 19.4572 72.6422 19.7859C72.2177 19.9274 71.7708 19.99 71.3237 19.9706L26 18Z" fill="#293037"/>
</svg>
