<svg width="27" height="81" viewBox="0 0 27 81" fill="none" xmlns="http://www.w3.org/2000/svg">
<path d="M2.94259e-06 67.3185L3.51695 63L14.0094 74.5L11.5997 6.49778C11.5421 4.87163 10.9881 3.30207 10.0123 2L10.0123 1L16.0079 -6.99729e-07L16.0079 74.5C17.4997 72.7086 20.8892 69.534 22.7504 65.479C23.3334 64.2088 23.9358 62.6636 25.3276 62.5369C25.3637 62.5336 25.3989 62.5312 25.4329 62.5293C25.8116 62.5092 26.139 62.7384 26.3528 63.0517C26.7349 63.6115 26.6949 64.3579 26.2552 64.8738L12.5105 81L2.15449 68.1103C1.7625 67.6224 1.13489 67.3882 0.519099 67.5L2.94259e-06 67.3185Z" fill="white"/>
<path d="M17.0073 55L17.0073 8.64804C17.0073 7.60889 18.4638 7.3727 18.7922 8.35859C18.9334 8.78262 18.9959 9.22891 18.9765 9.67542L17.0073 55Z" fill="white"/>
</svg>
