<svg width="70" height="45" viewBox="0 0 70 45" fill="none" xmlns="http://www.w3.org/2000/svg">
<path d="M58.9178 41.3013C55.4887 39.3287 28.0966 19.5205 14.8293 9.86304C1.35776 0.0926708 5.0318 2.4658 6.86882 1.23293C8.70584 5.80549e-05 13.6046 4.93155 22.1773 9.86304C30.7501 14.7945 75.451 36.3698 69.3276 37.6027C63.2042 38.8355 63.2042 43.767 58.9178 41.3013Z" fill="#293037"/>
<path d="M61.3653 12.3289C55.9767 14.3015 25.2372 34.9315 10.541 45C16.0521 41.7123 29.1562 33.9041 37.484 28.9726C47.8938 22.8083 68.101 9.86311 61.3653 12.3289Z" fill="#293037"/>
<path d="M10.5408 36.3697C20.3382 29.9588 51.5682 9.6575 66.2643 0C73.0006 12.3287 70.5507 4.31505 59.5286 10.4794C52.1611 14.5998 21.7678 35.1369 8.09198 44.3834L0.142773 43.1524C-0.063063 43.2836 -0.0278175 43.2571 0.130998 43.1505L0.142773 43.1524C0.730575 42.7778 3.28438 41.118 10.5408 36.3697Z" fill="#293037"/>
</svg>
