<svg width="138" height="109" viewBox="0 0 138 109" fill="none" xmlns="http://www.w3.org/2000/svg">
<path d="M25.9506 103.084C25.817 102.559 25.7674 102.252 25.6597 101.97C25.5605 101.711 25.4592 101.382 25.2523 101.248C23.8966 100.377 22.5151 99.5497 21.1378 98.7113C21.0149 98.6358 20.8727 98.5927 20.7585 98.5065C19.8123 97.7888 18.851 97.0883 17.9328 96.3382C16.7388 95.3619 15.5038 94.4178 14.4175 93.3294C12.676 91.5836 10.9366 89.8141 9.39557 87.8958C7.8696 85.9948 6.52899 83.9343 5.22717 81.8695C4.48789 80.697 3.9857 79.3737 3.31108 77.9835C3.14512 77.9555 2.72268 77.8822 2.58258 77.8585C2.58258 77.0955 2.63431 76.6191 2.57181 76.1579C2.39723 74.8453 1.03721 74.0931 0.985486 72.662C0.935913 71.3063 0.597527 69.9613 0.466052 68.6056C0.276383 66.6464 0.097491 64.6829 0.0371418 62.7173C-0.00165408 61.4586 0.416479 60.1568 0.224655 58.939C-0.290468 55.6543 0.175083 52.4364 0.670808 49.2314C2.1235 39.8493 5.69703 31.3206 11.206 23.5895C15.6051 17.4166 21.1766 12.4206 26.996 7.6616C27.662 7.1163 28.2245 6.44384 28.8453 5.84035C28.9918 5.69809 29.2246 5.45885 29.3388 5.49765C30.8928 6.02139 31.5092 4.59888 32.5395 4.02771C33.559 3.46302 34.7293 2.5858 35.7207 2.71297C36.8006 2.85091 37.6649 2.47803 38.6283 2.41122C38.8029 2.39829 39.0141 2.37458 39.1413 2.27112C41.3742 0.449871 43.7558 1.46072 45.9952 2.08145C48.2518 2.70865 50.2196 3.98676 51.7327 5.88776C52.4051 6.73265 52.6853 7.61418 52.6659 8.65951C52.6422 9.95702 52.8427 10.0928 54.0022 9.63157C59.0608 7.62065 64.2379 5.95673 69.4796 4.50404C73.6911 3.33801 77.9242 2.23017 82.1853 1.26243C86.6447 0.249425 91.1967 -0.364843 95.7531 0.238649C99.9236 0.790413 104.101 1.51891 107.866 3.63976C108.219 3.83805 108.782 3.66562 109.319 3.66562C109.064 5.32522 110.164 5.98906 111.521 6.37702C112.819 6.74774 114.142 7.02793 115.455 7.34907C115.63 7.39218 115.821 7.40511 115.97 7.49133C116.205 7.62711 116.423 7.79954 116.617 7.98921C116.645 8.01723 116.502 8.32328 116.449 8.31897C116.175 8.30604 115.903 8.23276 115.686 8.19181C115.989 8.82547 116.819 9.00652 117.343 8.38579C117.839 7.79954 118.151 7.95472 118.666 8.35992C119.703 9.17464 120.835 9.86865 121.889 10.6683C122.598 11.2071 123.277 11.7977 123.9 12.4335C125.231 13.787 126.559 15.1471 127.807 16.576C128.525 17.3972 129.087 18.3563 129.71 19.2616C130.355 20.1948 131.01 21.1216 131.624 22.0743C133.792 25.4366 135.053 29.2192 136.023 33.0147C136.967 36.7046 137.446 40.5605 136.59 44.4207C136.413 45.2139 136.465 46.0652 136.461 46.8886C136.448 49.1279 135.668 51.0893 134.394 52.8933C134.152 53.2338 133.954 53.639 133.857 54.0443C133.236 56.663 131.952 58.8851 130.062 60.7947C129.54 61.3228 129.146 61.9888 128.745 62.6246C127.163 65.1313 125.124 67.2478 123.07 69.3557C120.718 71.7718 118.438 74.2655 115.987 76.576C113.362 79.0504 110.672 81.4773 107.827 83.6886C105.4 85.5745 102.76 87.204 100.133 88.8118C96.8997 90.7904 93.6172 92.6893 90.2936 94.5127C85.4873 97.1508 80.6399 99.72 75.7775 102.252C74.0101 103.173 72.1544 103.925 70.3245 104.725C68.3653 105.58 66.4061 106.44 64.4189 107.229C60.1514 108.923 55.6661 109.126 51.1637 108.947C48.4458 108.839 45.7172 108.617 43.0359 108.177C41.4259 107.915 39.8999 107.134 38.3395 106.583C38.2382 106.548 38.1498 106.47 38.0485 106.447C34.5008 105.671 31.2334 104.143 27.9594 102.647C27.2266 102.313 26.5929 101.987 25.9463 103.082L25.9506 103.084ZM17.6289 41.7072C17.2539 41.7438 16.5857 41.705 16.5513 41.8322C16.3142 42.7288 16.1698 43.6556 16.0814 44.5802C16.0469 44.9358 16.2323 45.313 16.3357 45.7527C17.2668 45.5458 16.8983 46.4058 16.9177 46.9489C16.9392 47.6343 16.6008 47.8046 15.9435 47.6041C15.4025 47.4403 15.1719 47.7572 15.1783 48.3068C15.1869 48.9491 15.3076 49.6517 15.0964 50.2229C14.6912 51.3156 14.6438 52.2984 15.3874 53.1929C14.6438 54.5723 13.6567 55.9021 16.0792 57.0315C14.5468 57.1199 14.4541 57.9152 14.5166 58.786C14.605 60.0317 14.7192 61.2732 14.8205 62.5168C15.3637 62.45 15.8939 62.3832 16.4241 62.3186C16.4629 62.4199 16.5017 62.5211 16.5383 62.6225C16.2452 62.8186 15.9262 63.2109 15.6611 63.1785C14.5705 63.0427 14.702 63.6764 14.7516 64.2842C15.1762 64.2842 15.771 64.1441 15.8723 64.3079C16.4327 65.2153 15.2559 65.2024 15.1287 65.4718C14.9693 66.7111 15.9478 67.6789 15.0964 68.6962C15.0425 68.7608 15.1309 68.9548 15.1654 69.0863C15.3745 69.8687 15.5792 70.6532 15.7969 71.4334C16.0038 72.1706 16.2237 72.9034 16.4219 73.5801C16.9586 73.5155 17.2755 73.4767 17.6246 73.4336C17.3293 73.9573 17.1203 74.3259 16.9134 74.6944C17.0017 74.7483 17.0901 74.8022 17.1806 74.8561C17.3811 74.6944 17.5794 74.5328 17.9544 74.231C17.9953 74.6686 18.1311 74.9919 18.0255 75.1578C17.5212 75.9424 17.8789 76.5782 18.241 77.2657C18.9006 78.5201 19.351 79.8952 20.5753 80.7897C20.8317 80.9772 20.8964 81.4104 21.0775 81.7165C21.5322 82.4816 21.8857 83.3481 22.487 83.9774C23.7802 85.331 25.1747 86.594 26.5886 87.8247C27.2007 88.3571 27.9594 88.7192 28.662 89.1459C28.9659 89.3313 29.2936 89.4757 29.6061 89.646C31.3864 90.6158 33.0891 91.7776 34.9621 92.5082C37.001 93.3035 39.0787 94.101 41.3418 94.2303C42.3117 94.2864 43.2407 94.8381 44.2149 95.0213C46.2172 95.3942 48.2497 95.6097 50.2477 95.9999C55.0174 96.9331 59.8065 96.4245 64.4922 95.752C71.1004 94.8015 77.4544 92.6203 83.7328 90.3852C90.0178 88.1502 96.1497 85.4775 101.704 81.7057C105.202 79.3306 108.644 76.8541 111.97 74.2461C114.532 72.2352 116.806 69.86 119.332 67.7974C123.992 63.9932 126.915 58.9153 129.523 53.6994C131.243 50.2616 131.848 46.3605 131.654 42.5046C131.473 38.9397 131.081 35.3576 129.842 31.9435C129.012 29.6567 128.273 27.3354 127.449 25.0443C127.184 24.3072 126.835 23.5916 126.441 22.9149C125.072 20.5591 123.649 18.2335 122.294 15.8691C122.085 15.5048 121.962 14.9682 122.061 14.5759C122.27 13.7439 121.958 13.5155 121.264 13.7569C120.516 14.0155 119.998 13.7439 119.546 13.2331C119.05 12.6727 118.606 12.0671 118.123 11.4938C117.968 11.3084 117.793 11.1144 117.584 11.0088C115.231 9.79968 112.879 8.58839 110.506 7.41804C108.868 6.6098 107.269 5.54075 105.53 5.17866C103.379 4.7282 101.344 3.82942 99.0658 3.77123C95.8113 3.68933 92.5503 2.91772 89.3173 3.04704C83.0539 3.30137 76.9866 4.83165 71.0617 6.87059C67.5377 8.08404 64.0094 9.28887 60.5221 10.5972C58.9509 11.1856 57.4033 11.9033 55.9679 12.7654C53.6811 14.1405 51.0473 14.9078 49.0773 16.8692C48.4415 17.5028 47.2604 17.5567 46.9953 18.6926C46.9737 18.7852 46.672 18.796 46.5211 18.8822C45.7926 19.2961 44.9843 19.6215 44.3679 20.1668C43.37 21.0483 42.8053 22.3566 41.5229 23.0011C41.1586 23.1843 40.9668 23.7188 40.706 24.0981C40.3827 24.5658 40.0637 25.0378 39.7534 25.5142C38.1692 27.9368 36.1949 30.1697 36.0096 33.269C35.9988 33.4415 35.8953 33.6053 35.8458 33.7777C35.35 35.4783 34.7896 37.1637 34.3823 38.8858C34.0762 40.1898 33.9663 41.5412 33.7465 43.0413C34.1905 43.44 34.4103 44.05 33.8456 44.841C33.6775 45.0759 33.6689 45.5997 33.8197 45.8562C34.2875 46.6623 34.3758 47.3821 33.7508 48.1365C33.6753 48.227 33.7723 48.4598 33.7896 48.6171C34.0913 48.6301 34.3284 48.6408 34.5763 48.6516C34.5526 48.796 34.5547 48.8564 34.5396 48.8607C34.2228 48.962 33.906 49.0568 33.5827 49.1538C33.2313 50.5655 32.8822 51.9751 32.5309 53.3869L32.1149 53.5011C31.6687 52.7769 31.0976 52.098 30.8023 51.3156C30.3755 50.1819 30.0889 48.9835 29.8496 47.7916C29.5285 46.1816 29.1858 44.5565 29.091 42.9228C29.0241 41.7589 29.0565 40.6489 28.1534 39.735C29.4013 38.8298 28.0823 37.9914 28.1426 37.0215C28.4681 37.1874 28.7138 37.3124 29.0241 37.4719C29.3927 35.2433 29.744 33.1268 30.0996 30.9822C30.66 31.3249 30.7225 30.6633 30.9488 30.1783C31.4963 29.0123 31.9597 27.788 32.658 26.719C33.6667 25.1779 34.8306 23.736 35.9686 22.2812C37.0226 20.9341 38.1649 19.656 39.2663 18.352C40.7168 16.6364 42.1264 14.9423 44.0317 13.7116C44.2106 13.5952 44.3679 13.1706 44.2903 13.0068C44.1977 12.815 43.8248 12.6232 43.5963 12.6469C40.9948 12.9378 38.3783 13.1965 36.1238 14.744C33.3283 16.6644 30.5415 18.602 27.7137 20.4772C26.7998 21.0828 26.4399 22.0484 26.4184 22.9084C26.3968 23.861 26.08 24.1606 25.3084 24.3568C25.2092 23.986 25.1273 23.68 25.0454 23.3761C24.9786 23.3761 24.9096 23.3804 24.8428 23.3826C24.5734 24.1197 24.3018 24.8546 24.0324 25.5918C23.9871 25.9797 24.4398 26.5315 23.485 26.5854C21.9547 26.6716 21.4288 27.1307 21.0408 28.6286C20.9007 29.1696 20.6248 29.6783 20.3834 30.1869C20.1097 30.7624 19.7799 31.3099 19.5191 31.8896C19.17 32.6656 18.9113 33.4867 18.5212 34.2411C18.1311 34.9976 17.7733 35.6938 18.1915 36.5732C18.2992 36.8016 18.1397 37.1723 18.0643 37.4676C17.9975 37.7306 17.8768 37.9806 17.7798 38.2349C17.6074 38.6897 17.5298 39.2178 17.2431 39.5842C16.8077 40.1402 16.6569 40.5476 17.3315 41.0002C17.5255 41.1295 17.6419 41.3709 17.7949 41.5606C17.741 41.6102 17.6893 41.6597 17.6354 41.7093L17.6289 41.7072Z" fill="#F0362A"/>
<path d="M53.563 33.7734C53.2677 33.1031 52.9897 32.4242 52.6707 31.7625C52.1491 30.6805 51.5413 29.633 51.1038 28.5187C50.9896 28.2278 51.3689 27.745 51.5499 27.2751C51.4012 27.1566 51.1534 27.0466 51.0542 26.8548C50.9594 26.6716 50.9357 26.3505 51.0413 26.1996C51.1146 26.0918 51.5435 26.066 51.6556 26.1716C52.3927 26.8613 53.091 26.5617 53.938 26.3656C54.6536 26.1996 55.6149 26.3763 56.2636 26.7514C59.1712 28.4368 62.0119 30.2365 64.8612 32.0211C65.3419 32.3229 65.7449 32.7475 66.3484 33.254C67.5468 32.0642 68.7408 30.8163 70.0039 29.6395C72.3316 27.4712 74.696 25.3418 77.0561 23.2058C77.2932 22.9925 77.6402 22.8955 77.86 22.6692C80.011 20.4535 82.7936 19.1495 85.3239 17.4813C85.4705 17.3843 85.6364 17.3067 85.8024 17.2485C87.5245 16.6386 89.2445 16.02 90.9752 15.4359C93.0594 14.7332 94.9324 14.8712 96.3312 16.8455C96.6825 17.3412 97.1222 17.7744 97.5123 18.2421C99.4995 20.6151 99.6396 23.0269 97.7709 25.5077C95.676 28.2859 93.5185 31.0211 91.3028 33.7044C90.0958 35.1658 88.6992 36.4719 87.406 37.8664C86.8952 38.416 86.4404 39.0195 85.949 39.5885C84.8735 40.8343 83.7979 42.08 82.7095 43.3129C81.481 44.7074 80.246 46.0997 78.9959 47.4748C78.317 48.2227 78.4937 48.837 79.1274 49.5267C81.1878 51.7769 83.3022 53.9861 85.2226 56.3526C87.3844 59.0188 89.4966 61.7496 91.3567 64.6291C92.3654 66.1917 92.9624 68.0776 93.4646 69.8946C94.0638 72.0628 92.0636 74.6212 89.8027 74.8712C88.1819 75.0522 86.6882 74.8065 85.3088 73.8216C83.1513 72.2805 80.9271 70.8343 78.7415 69.3299C78.4851 69.1531 78.2501 68.9009 78.0971 68.6315C76.819 66.3921 75.612 64.1118 74.28 61.9047C73.5494 60.6935 72.6355 59.5899 71.7648 58.467C71.2755 57.8355 70.5362 57.801 70.0125 58.4304C68.7107 59.993 67.4649 61.603 66.1997 63.1958C65.6221 63.9243 64.9884 64.6226 64.4905 65.405C62.3761 68.7414 59.6324 71.6382 58.0095 75.3368C57.0137 77.6063 55.4166 79.6215 54.0156 81.6993C53.8217 81.9881 52.9509 82.2273 52.8086 82.0829C51.6038 80.8587 50.2309 81.598 48.9269 81.6325C48.7157 81.6389 48.4958 81.695 48.2997 81.7769C47.2091 82.223 46.4914 81.7812 46.0237 80.8091C45.6012 79.9297 45.1809 79.3974 44.086 80.0892C43.7326 80.3112 42.8941 80.072 42.448 79.7832C41.3725 79.0827 40.4478 78.1516 39.3702 77.4533C37.4606 76.2161 37.3075 73.0931 38.6503 71.7524C38.8831 71.5197 38.9995 71.1339 39.0835 70.7976C39.5232 69.0346 40.2409 67.4526 41.4975 66.0775C42.1312 65.3834 42.5536 64.448 42.9006 63.5536C43.4718 62.0793 44.2067 60.7301 45.2628 59.549C45.4935 59.2903 45.6077 58.9282 45.7823 58.62C46.0107 58.217 46.1487 57.6609 46.4957 57.4454C47.6014 56.7557 47.86 55.5271 48.5282 54.5659C49.9119 52.5743 51.2978 50.5828 52.6405 48.5654C53.1535 47.7938 53.4984 46.908 54.0243 46.145C54.5092 45.4424 55.1687 44.8647 55.686 44.1836C56.4124 43.2224 57.1107 42.2352 57.7487 41.2158C57.8974 40.9787 57.8715 40.4873 57.7228 40.2329C56.5395 38.2026 55.3196 36.196 54.0738 34.2045C53.9596 34.0213 53.5997 33.9933 53.3539 33.8941C53.4208 33.8532 53.4897 33.8122 53.5565 33.7713L53.563 33.7734Z" fill="#F0362A"/>
</svg>
