<svg width="140" height="109" viewBox="0 0 140 109" fill="none" xmlns="http://www.w3.org/2000/svg">
<path d="M22.3265 99.9678C22.3135 98.8656 21.9844 98.0817 20.9169 97.8414C20.0486 95.7366 17.7143 95.3274 16.2158 93.8961C14.7261 92.4734 13.4138 90.8754 11.9479 89.4397C10.1701 87.6987 8.70847 85.5983 7.32479 83.5087C5.99525 81.5014 4.88224 79.3425 3.79522 77.188C3.13262 75.8736 2.69737 74.4445 2.23615 73.037C1.92217 72.7511 0.45404 73.1734 1.64067 71.9023C1.73378 71.8027 1.74677 71.5039 1.66665 71.3869C1.12314 70.5966 1.68614 69.3428 0.553648 68.782C0.39774 68.7062 0.386914 68.2645 0.373921 67.9895C0.304629 66.5495 -0.0310047 65.0424 0.276479 63.6825C0.655421 61.9979 -0.314669 60.4864 0.109745 58.8321C0.432387 57.5783 0.438883 56.2401 0.551482 54.9344C1.02787 49.495 1.92217 44.1486 3.78439 38.9799C7.56298 28.4864 13.7018 19.6322 22.2919 12.5514C25.815 9.64764 29.6282 7.09899 33.305 4.38144C33.7771 4.03281 34.2036 3.62572 34.667 3.2641C34.8294 3.13634 35.0915 2.93496 35.2149 2.98693C36.7155 3.61273 37.4907 2.307 38.5777 1.80247C39.812 1.22864 40.9748 0.592022 42.5404 0.94931C43.5538 1.18101 44.7512 0.618007 45.8642 0.392807C46.4467 0.273711 47.0292 -0.0337727 47.5965 0.00303876C50.2058 0.167608 52.6613 0.964467 54.6903 2.60149C55.9506 3.61706 57.0354 4.92711 57.9384 6.27831C58.3541 6.90194 58.1917 7.93915 58.2112 8.79231C58.2285 9.50905 58.4711 9.8187 59.1986 9.59567C64.6381 7.924 70.2009 6.7482 75.7984 5.81275C81.5822 4.84699 87.407 3.97218 93.2492 3.54343C97.0928 3.26193 100.986 3.64521 104.786 4.84916C107.991 5.86472 111.12 6.91493 113.946 8.77066C114.269 8.98287 114.81 8.86594 115.353 8.90924C114.853 10.7368 116.215 11.3799 117.536 11.9516C118.677 12.4453 119.894 12.7615 121.068 13.1815C121.516 13.3418 121.938 13.5691 122.374 13.7684C122.337 13.9113 122.298 14.052 122.261 14.1949C121.912 14.1516 121.564 14.1062 121.261 14.0693C121.629 14.7428 122.345 14.968 122.911 14.4245C123.467 13.8896 123.779 14.0737 124.249 14.5111C125.273 15.4617 126.403 16.304 127.404 17.2784C128.198 18.0493 128.885 18.935 129.584 19.7989C130.513 20.9444 131.362 22.1592 132.337 23.2614C133.209 24.2488 133.874 25.2882 134.298 26.5636C134.664 27.6614 135.429 28.6207 135.959 29.6687C137.819 33.3499 138.603 37.3688 139.326 41.3596C139.705 43.4557 139.595 45.6882 139.391 47.8298C139.129 50.5733 138.577 53.2909 138.101 56.0127C137.787 57.81 136.739 59.2435 135.63 60.6337C135.409 60.9108 135.136 61.188 135.039 61.5128C134.229 64.1892 132.642 66.3135 130.522 68.0956C129.978 68.5525 129.541 69.1501 129.099 69.7196C126.778 72.7078 123.816 75.0096 120.938 77.4067C119.028 78.9982 117.209 80.7067 115.239 82.2182C113.078 83.8768 110.73 85.293 108.569 86.9517C105.261 89.4917 101.506 91.2478 97.842 93.1425C94.5593 94.838 91.1618 96.3213 87.7686 97.7872C82.9463 99.8703 78.0548 101.793 73.2454 103.904C70.8614 104.95 68.356 105.559 65.9243 106.412C63.5445 107.248 61.18 108.058 58.6963 108.506C53.8696 109.376 49.0668 108.987 44.2835 108.188C42.3346 107.861 40.3793 107.477 38.4954 106.897C37.1161 106.473 35.8493 105.689 34.535 105.059C34.4094 104.998 34.3141 104.855 34.1863 104.816C30.6546 103.727 27.5798 101.704 24.3642 99.9743C23.3594 99.4329 23.3832 99.3918 22.3265 99.9764V99.9678ZM16.9607 70.6572C17.0842 70.8694 17.1556 70.956 17.1838 71.0556C17.2119 71.1531 17.2422 71.2938 17.1946 71.3653C16.4908 72.4198 17.1275 73.3271 17.4176 74.3232C17.7489 75.46 18.2188 76.4518 19.0611 77.2811C19.256 77.4738 19.386 77.7662 19.4639 78.0347C20.0226 79.9662 21.1226 81.5404 22.5691 82.9046C23.0649 83.3723 23.4785 83.9267 23.9766 84.3944C24.7583 85.1263 25.5681 85.8279 26.3866 86.5186C26.6573 86.7481 26.9908 86.9062 27.2874 87.1076C28.9396 88.2358 30.4792 89.5956 32.2635 90.4466C34.9962 91.7502 37.8393 92.8913 40.7388 93.7575C44.8248 94.9788 48.9239 96.2888 53.2482 96.4382C56.1628 96.54 59.1185 96.9038 61.9898 96.5725C67.0979 95.9792 72.1822 95.087 77.2254 94.0693C85.9909 92.3002 94.4164 89.4527 102.279 85.1566C107.212 82.4607 111.941 79.4032 116.434 76.0144C119.043 74.046 121.674 72.0474 123.976 69.7434C125.89 67.8292 127.237 65.3629 129.019 63.2992C131.34 60.612 132.362 57.3943 133.242 54.0877C134.456 49.5274 134.09 44.926 133.346 40.3635C132.895 37.6027 132.124 34.8916 131.442 32.1719C131.226 31.3079 130.888 30.4656 130.518 29.6536C129.387 27.1612 128.198 24.697 127.081 22.2003C126.93 21.8604 126.951 21.3645 127.068 20.9986C127.272 20.3641 127.105 20.0068 126.47 20.1476C125.464 20.3706 124.885 19.8726 124.409 19.1385C123.636 17.9475 122.8 16.9298 121.462 16.2066C119.349 15.0654 117.434 13.5648 115.397 12.2742C114.093 11.4492 112.805 10.4921 111.369 10.0114C109.035 9.22972 106.787 8.17301 104.293 7.83305C101.945 7.51257 99.6501 6.79583 97.3007 6.50134C92.7967 5.93834 88.258 6.21768 83.8363 7.03619C77.6845 8.17518 71.5673 9.58484 65.5302 11.224C62.1132 12.1508 58.8717 13.738 55.5759 15.0892C54.8657 15.3816 54.3092 16.0507 53.599 16.3473C52.1005 16.9731 50.9897 18.3092 49.3245 18.6123C49.1426 18.6448 48.9997 18.8851 48.8373 19.0259C47.8196 19.9029 47.0703 21.0895 45.7343 21.607C45.3987 21.737 45.1496 22.1246 44.8963 22.4234C44.4351 22.9669 43.9868 23.5234 43.5559 24.0907C41.815 26.373 39.6019 28.376 39.1645 31.44C39.145 31.5743 39.0303 31.6912 38.9826 31.8255C38.2919 33.7288 37.5903 35.6279 36.9212 37.5377C36.6722 38.2458 36.5423 38.9994 36.2716 39.6966C35.7714 40.9872 36.4838 42.4207 35.7584 43.6874C35.6783 43.826 35.9793 44.1443 35.9858 44.3803C35.9966 44.7463 36.0334 45.2183 35.8342 45.4609C35.282 46.13 34.9853 46.602 36.2326 46.8597C35.8905 46.9311 35.5505 47.0026 35.1932 47.0784C34.7168 48.4209 34.2361 49.77 33.7316 51.1904C33.4891 51.0367 33.3288 50.9631 33.2032 50.8505C32.4259 50.1532 32.2548 49.2329 32.1054 48.2369C31.6463 45.1794 30.9361 42.1586 31.3388 39.0188C31.419 38.4017 31.0465 37.7261 30.8625 37.0007C32.1422 36.3598 30.6481 35.2987 31.014 34.3784C31.2869 34.5473 31.4948 34.6751 31.6853 34.7942C32.2721 32.6353 33.5692 30.7428 33.3353 28.5536C33.7879 28.3457 34.1755 28.0967 34.4224 27.7459C35.7172 25.901 36.8995 23.9716 38.2767 22.1895C39.1234 21.0938 40.2342 20.1952 41.2541 19.2359C42.1441 18.3958 43.1575 17.6704 43.9652 16.7609C45.4441 15.0957 47.0573 13.6341 49.056 12.6164C49.2617 12.5124 49.3461 12.1746 49.4891 11.9451C49.2227 11.7979 48.9585 11.5229 48.69 11.5229C46.4554 11.512 44.2359 11.525 42.0965 12.4063C38.4889 13.8918 35.0936 15.7648 31.9127 17.9995C31.2631 18.4542 30.7239 19.4005 30.607 20.1909C30.4705 21.1112 30.0678 21.306 29.2947 21.4381C29.2449 21.057 29.206 20.7452 29.128 20.1454C28.6559 21.0917 28.316 21.7694 27.8483 22.7049C28.0475 23.322 27.9565 23.5256 27.2376 23.4693C25.9211 23.3653 25.174 23.8655 24.7279 25.0846C24.5331 25.6151 24.284 26.1348 23.9982 26.6242C23.6431 27.2305 23.1884 27.7805 22.8419 28.3933C22.5604 28.8914 22.5214 29.6449 22.123 29.9329C20.5076 31.0979 21.3781 33.0684 20.5509 34.517C20.2824 34.9891 20.2673 35.6387 19.674 35.9916C19.1239 36.3186 19.1651 36.7712 19.6025 37.1393C20.0832 37.5442 20.631 37.8712 21.1486 38.2328C21.3911 38.4017 21.6293 38.5749 21.9649 38.8153C20.6137 39.937 20.7805 41.3618 20.8757 42.765C20.7696 42.7888 20.6657 42.8126 20.5596 42.8364C20.2694 42.0894 19.9771 41.3423 19.6328 40.4523C20.7415 40.1968 20.2434 39.3545 19.9165 38.6031C19.7909 38.3129 19.4791 38.1051 19.2517 37.8604C19.0395 38.1051 18.7342 38.3173 18.6367 38.6009C18.418 39.2267 18.3033 39.8893 18.182 40.3917C18.247 40.9504 18.2989 41.4051 18.3574 41.9075C19.2669 41.9681 18.8533 42.7541 18.7948 43.276C18.7277 43.8801 18.3271 43.9581 17.7554 43.7394C17.1881 43.5228 16.9261 43.865 16.8936 44.4431C16.8611 45.0126 16.9044 45.6341 16.6901 46.1365C16.2223 47.2386 15.8715 48.291 16.545 49.1788C16.1769 50.0103 15.8889 50.6599 15.603 51.3095C15.1721 52.2926 16.2613 52.4637 16.4215 52.9596C15.9408 53.4294 15.3432 53.9145 15.2847 54.4602C15.1375 55.8265 15.2371 57.2189 15.2371 58.6047H16.807C16.8286 58.7325 16.8481 58.8602 16.8698 58.988C16.3133 59.1244 15.7546 59.2586 15.0639 59.4275C15.0141 59.6701 14.9339 60.0512 14.8798 60.3154C15.393 60.3738 15.9755 60.3002 16.0599 60.4713C16.5428 61.4587 15.3194 61.2616 15.1115 61.6557C14.9361 62.7536 15.8001 63.8124 14.8408 64.7371C14.7824 64.7934 14.7845 64.9406 14.8018 65.0402C14.9837 66.1229 15.2089 67.2013 15.3475 68.2905C15.4601 69.1739 15.5381 70.0011 16.7745 69.7607C16.7918 69.7564 16.833 69.8755 16.8351 69.8842C16.584 70.2631 16.3501 70.6161 16.1162 70.969C16.1899 71.0232 16.2635 71.0773 16.3371 71.1314C16.5233 70.9907 16.7095 70.8499 16.9672 70.6572H16.9607Z" fill="url(#paint0_linear_343_26709)"/>
<path d="M63.458 78.1364C63.3389 78.1645 63.0336 78.3443 62.8322 78.2663C61.3403 77.6795 59.8786 77.0191 58.3867 76.4279C57.4469 76.0555 56.8298 75.4492 56.9121 74.4141C57.0138 73.1322 56.2126 72.2704 55.6583 71.2786C55.4006 70.8153 55.2122 70.3129 54.9979 69.8278C54.9697 69.7629 54.9849 69.6806 54.9589 69.6156C54.3374 68.1908 53.8957 66.6469 53.0534 65.3672C49.749 60.3348 46.3948 55.3306 42.8999 50.4304C41.4036 48.3321 39.5479 46.4829 37.7853 44.586C36.7437 43.4622 36.7329 42.8819 38.0018 42.0049C39.301 41.1084 40.6717 40.7013 42.2914 41.0434C43.2962 41.2557 44.368 41.1366 45.4031 41.2232C45.9617 41.2708 46.5637 41.3271 47.0574 41.5653C50.0088 42.9793 52.3756 45.0819 54.3526 47.6912C55.6323 49.3802 57.1784 50.8656 58.4646 52.5481C60.0605 54.6377 61.5092 56.8399 63.0271 58.9901C63.3086 59.3885 63.6161 59.7696 63.9777 60.2482C64.2332 59.9602 64.4324 59.8065 64.5385 59.6029C66.5588 55.7572 69.1703 52.3359 71.8467 48.9276C73.1827 47.2256 74.5989 45.6297 76.0497 44.0382C77.2038 42.7714 78.1003 41.2686 79.2523 39.9976C80.7161 38.3844 82.3423 36.9184 83.8537 35.3485C84.696 34.4737 85.4128 33.4776 86.2508 32.5985C87.1711 31.6305 88.1044 30.6561 89.1416 29.8203C91.4087 27.9949 93.7473 26.2582 96.0556 24.4848C96.3696 24.2423 96.6598 23.9629 96.9911 23.7507C98.5978 22.7308 100.224 21.7413 101.826 20.7127C103.201 19.8314 104.667 20.0826 106.122 20.3446C106.696 20.4485 106.917 20.9162 106.545 21.4035C105.828 22.3432 105.094 23.2787 104.273 24.1232C103.23 25.1972 101.872 25.9876 101.411 27.5553C101.348 27.7697 101.112 28.0447 100.913 28.0901C99.7714 28.3413 99.5592 29.385 99.0287 30.1689C98.3639 31.152 97.8421 32.4426 96.9045 32.9839C95.2912 33.915 94.2021 35.355 92.7794 36.4182C92.6841 36.8491 93.5633 38.0054 92.0367 37.3515C91.8137 37.2562 91.3156 37.7975 90.9432 38.0422L91.2875 38.2934C91.1402 38.6832 91.0882 39.1596 90.8284 39.4454C89.737 40.6385 88.5093 41.7147 87.4721 42.9533C86.6384 43.9494 86.0321 45.1317 85.2764 46.1971C84.6527 47.0762 83.9295 47.886 83.3059 48.7674C82.9724 49.2416 82.758 49.7981 82.4895 50.3199C82.5761 50.3741 82.6606 50.4282 82.7472 50.4845C83.0417 50.1056 83.3059 49.6985 83.6437 49.3628C83.7714 49.2351 84.0638 49.2719 84.2803 49.2351C84.2803 49.4278 84.3582 49.6703 84.2716 49.8067C83.0504 51.7014 81.7858 53.5702 80.5797 55.4735C80.0621 56.2899 79.5879 57.1452 79.2025 58.0309C78.3601 59.9732 77.4918 61.9134 76.8162 63.9164C76.329 65.3563 75.9306 66.8851 75.8526 68.3922C75.7205 70.93 75.229 73.3834 74.7483 75.8606C74.5469 76.9021 74.7245 78.0693 74.9562 79.1325C75.2723 80.5811 75.2139 81.2264 74.2936 81.9518C73.3126 82.7248 72.4573 82.7292 71.2166 81.9929C70.5691 81.6097 70.0104 81.2675 69.0988 81.3368C68.2911 81.3975 67.425 80.6504 66.5783 80.278C66.1626 80.0939 65.6689 80.0333 65.3137 79.7734C64.6749 79.3057 64.1141 78.7319 63.4537 78.1429L63.458 78.1364Z" fill="url(#paint1_linear_343_26709)"/>
<defs>
<linearGradient id="paint0_linear_343_26709" x1="69.7888" y1="0" x2="69.7888" y2="109" gradientUnits="userSpaceOnUse">
<stop stop-color="#A2F040"/>
<stop offset="1" stop-color="#7BDE05"/>
</linearGradient>
<linearGradient id="paint1_linear_343_26709" x1="71.8769" y1="20.0988" x2="71.8769" y2="82.5385" gradientUnits="userSpaceOnUse">
<stop stop-color="#A2F040"/>
<stop offset="1" stop-color="#7BDE05"/>
</linearGradient>
</defs>
</svg>
